<?xml version="1.0" encoding="UTF-8"?>
<svg version="1.1" xmlns="http://www.w3.org/2000/svg" width="500" height="500">
<path d="M0 0 C1.95826834 -0.00551503 1.95826834 -0.00551503 3.95609766 -0.01114148 C7.56929915 -0.02111687 11.18248403 -0.02487105 14.79569733 -0.02753079 C18.69708271 -0.03144714 22.59845511 -0.0410245 26.49983215 -0.04974365 C35.91642548 -0.06947043 45.33301982 -0.0795694 54.74962863 -0.08847144 C59.19009698 -0.0928605 63.63056415 -0.0982257 68.07103157 -0.10346031 C82.84235734 -0.1204687 97.61368239 -0.13496136 112.38501644 -0.14220905 C116.21489399 -0.14411877 120.04477153 -0.14603913 123.87464905 -0.147995 C124.82648091 -0.14847874 125.77831278 -0.14896248 126.75898803 -0.14946087 C142.16720353 -0.15775564 157.57534126 -0.18308496 172.98352282 -0.21557567 C188.82207705 -0.24870016 204.66059182 -0.26666267 220.49918085 -0.26985329 C229.38412558 -0.27201339 238.26895688 -0.2806885 247.15386772 -0.30631447 C254.72280167 -0.32809522 262.29159462 -0.33603581 269.86055636 -0.32634769 C273.71677985 -0.32182425 277.5727129 -0.3235739 281.42889595 -0.34310913 C310.97793281 -0.4846144 310.97793281 -0.4846144 324.07948303 4.14717102 C324.9603958 4.4387292 325.84130857 4.73028738 326.74891567 5.03068066 C328.77705012 5.72147586 330.73425982 6.49412077 332.70448303 7.33467102 C333.39687073 7.62366272 334.08925842 7.91265442 334.80262756 8.21040344 C342.08604863 11.37765112 348.57768834 15.62538463 355.07948303 20.14717102 C356.06948303 20.80717102 357.05948303 21.46717102 358.07948303 22.14717102 C358.07948303 22.80717102 358.07948303 23.46717102 358.07948303 24.14717102 C358.64151428 24.38435852 359.20354553 24.62154602 359.78260803 24.86592102 C362.59842345 26.43664799 364.55903719 28.36188567 366.82948303 30.64717102 C367.62870178 31.44123352 368.42792053 32.23529602 369.25135803 33.05342102 C371.07948303 35.14717102 371.07948303 35.14717102 371.07948303 37.14717102 C371.73948303 37.14717102 372.39948303 37.14717102 373.07948303 37.14717102 C373.07948303 37.80717102 373.07948303 38.46717102 373.07948303 39.14717102 C373.73948303 39.14717102 374.39948303 39.14717102 375.07948303 39.14717102 C376.59878565 41.20126816 377.97700381 43.23611703 379.32948303 45.39717102 C379.93336853 46.35671692 379.93336853 46.35671692 380.54945374 47.33564758 C385.92684957 55.99881177 390.10776407 64.74663509 393.39198303 74.39717102 C393.77423035 75.51430481 393.77423035 75.51430481 394.16419983 76.65400696 C394.4005011 77.37878235 394.63680237 78.10355774 394.88026428 78.85029602 C395.19217712 79.80404114 395.19217712 79.80404114 395.51039124 80.77705383 C397.36056157 88.48252515 397.22557243 96.24969335 397.21992493 104.12547302 C397.22438161 106.07488904 397.22438161 106.07488904 397.22892833 108.06368721 C397.23695711 111.65568986 397.23878559 115.24767249 397.23952579 118.83968306 C397.24138355 122.71987914 397.24893446 126.600065 397.25566101 130.48025513 C397.26921526 138.95772235 397.27526444 147.43518482 397.27967167 155.91266108 C397.28243887 161.21081167 397.28667707 166.50896046 397.29117584 171.80710983 C397.30336443 186.49012449 397.31366474 201.1731377 397.31705093 215.8561573 C397.3172705 216.79502246 397.31749007 217.73388761 397.31771629 218.70120322 C397.31793456 219.6422504 397.31815284 220.58329757 397.31837773 221.55286133 C397.31882119 223.45962342 397.31926775 225.3663855 397.31971741 227.27314758 C397.31993884 228.21895734 397.32016027 229.16476709 397.32038841 230.13923775 C397.32433484 245.4581942 397.341786 260.77710303 397.36507693 276.0960411 C397.38882287 291.84195665 397.40125425 307.58784834 397.40241885 323.33378208 C397.40333376 332.16720543 397.40903959 341.00056673 397.42723846 349.83397293 C397.44268323 357.35681166 397.44773417 364.87956913 397.43950036 372.40242071 C397.43560938 376.2360764 397.43644698 380.06956868 397.45055771 383.90320396 C397.46575813 388.07124139 397.45738442 392.23891501 397.44697571 396.40696716 C397.45906031 398.19943082 397.45906031 398.19943082 397.47138906 400.02810585 C397.40721669 411.07248311 395.47575858 421.69228567 391.20448303 431.89717102 C390.94328674 432.5214801 390.68209045 433.14578918 390.41297913 433.78901672 C386.29681507 443.503214 381.59153165 452.78069796 375.07948303 461.14717102 C374.41948303 461.14717102 373.75948303 461.14717102 373.07948303 461.14717102 C372.86292053 461.68857727 372.64635803 462.22998352 372.42323303 462.78779602 C370.61448306 465.96362446 368.16224504 468.35445184 365.57948303 470.89717102 C365.08061584 471.40377258 364.58174866 471.91037415 364.06776428 472.43232727 C360.33289442 476.14717102 360.33289442 476.14717102 358.07948303 476.14717102 C358.07948303 476.80717102 358.07948303 477.46717102 358.07948303 478.14717102 C340.33046536 493.26205886 317.0971448 500.30395169 294.18347168 500.28761292 C292.88063187 500.29058404 291.57779206 500.29355516 290.23547226 500.29661632 C286.6298087 500.30465536 283.02416509 500.30647416 279.41849363 500.30721378 C275.52532826 500.30906977 271.6321731 500.31661986 267.73901367 500.323349 C259.23049648 500.33691116 250.72198402 500.34295383 242.21345782 500.34735966 C236.89638402 500.35012585 231.57931203 500.35436391 226.26223946 500.35886383 C211.52865304 500.37105409 196.79506806 500.38135365 182.06147671 500.38473892 C180.64792488 500.38506827 180.64792488 500.38506827 179.20581645 500.38540427 C178.26124623 500.38562255 177.316676 500.38584083 176.34348243 500.38606572 C174.4295549 500.38650918 172.51562736 500.38695574 170.60169983 500.3874054 C169.17765102 500.38773754 169.17765102 500.38773754 167.72483356 500.38807639 C152.35084813 500.39202218 136.97691016 500.40947061 121.60294306 500.43276492 C105.80281857 500.45651083 90.00271787 500.46894226 74.20257527 500.47010684 C65.33783797 500.47102182 56.47316251 500.47672929 47.60844231 500.49492645 C40.05813107 500.51037127 32.50790079 500.51542218 24.95757674 500.50718835 C21.10975137 500.50329721 17.26208881 500.50413569 13.41428375 500.5182457 C9.23086652 500.5334452 5.04781178 500.52507273 0.86437988 500.5146637 C-0.93494337 500.5267483 -0.93494337 500.5267483 -2.77061659 500.53907704 C-14.68660676 500.47008964 -25.91120714 498.04853605 -36.92051697 493.52217102 C-37.76283875 493.18169739 -38.60516052 492.84122375 -39.4730072 492.49043274 C-47.24915814 489.22801184 -54.05351168 485.02183457 -60.92051697 480.14717102 C-61.91051697 479.48717102 -62.90051697 478.82717102 -63.92051697 478.14717102 C-63.92051697 477.48717102 -63.92051697 476.82717102 -63.92051697 476.14717102 C-64.73262634 475.82232727 -64.73262634 475.82232727 -65.56114197 475.49092102 C-68.7369704 473.68217105 -71.12779778 471.22993303 -73.67051697 468.64717102 C-74.17711853 468.14830383 -74.68372009 467.64943665 -75.20567322 467.13545227 C-78.92051697 463.40058241 -78.92051697 463.40058241 -78.92051697 461.14717102 C-79.58051697 461.14717102 -80.24051697 461.14717102 -80.92051697 461.14717102 C-82.43981959 459.09307388 -83.81803774 457.05822501 -85.17051697 454.89717102 C-85.77440247 453.93762512 -85.77440247 453.93762512 -86.39048767 452.95869446 C-97.35788954 435.28984396 -103.07574725 417.99055617 -103.06095886 397.25115967 C-103.06392998 395.94831986 -103.06690111 394.64548005 -103.06996226 393.30316025 C-103.07800131 389.69749669 -103.0798201 386.09185308 -103.08055973 382.48618162 C-103.08241571 378.59301624 -103.08996581 374.69986109 -103.09669495 370.80670166 C-103.11025711 362.29818447 -103.11629978 353.78967201 -103.1207056 345.28114581 C-103.1234718 339.96407201 -103.12770985 334.64700002 -103.13220978 329.32992744 C-103.14440003 314.59634102 -103.1546996 299.86275605 -103.15808487 285.1291647 C-103.15830444 284.18679681 -103.158524 283.24442893 -103.15875022 282.27350444 C-103.1589685 281.32893421 -103.15918678 280.38436399 -103.15941167 279.41117042 C-103.15985513 277.49724289 -103.16030169 275.58331535 -103.16075134 273.66938782 C-103.16097277 272.72002195 -103.1611942 271.77065608 -103.16142234 270.79252154 C-103.16536813 255.41853612 -103.18281656 240.04459815 -103.20611086 224.67063104 C-103.22985678 208.87050656 -103.24228821 193.07040586 -103.24345279 177.27026325 C-103.24436776 168.40552596 -103.25007524 159.5408505 -103.2682724 150.67613029 C-103.28371722 143.12581906 -103.28876812 135.57558877 -103.2805343 128.02526473 C-103.27664316 124.17743936 -103.27748164 120.32977679 -103.29159164 116.48197174 C-103.30679115 112.29855451 -103.29841868 108.11549977 -103.28800964 103.93206787 C-103.29606605 102.73251903 -103.30412245 101.5329702 -103.31242299 100.2970714 C-103.24841218 89.24067277 -101.32158582 78.61350849 -97.04551697 68.39717102 C-96.78432068 67.77286194 -96.52312439 67.14855286 -96.25401306 66.50532532 C-92.13784901 56.79112804 -87.43256558 47.51364408 -80.92051697 39.14717102 C-80.26051697 39.14717102 -79.60051697 39.14717102 -78.92051697 39.14717102 C-78.69364197 38.61092102 -78.46676697 38.07467102 -78.23301697 37.52217102 C-75.17690812 31.9920693 -70.90881781 27.91610943 -65.92051697 24.14717102 C-65.26051697 24.14717102 -64.60051697 24.14717102 -63.92051697 24.14717102 C-63.92051697 23.48717102 -63.92051697 22.82717102 -63.92051697 22.14717102 C-45.54756448 7.37191177 -23.3330771 -0.00353271 0 0 Z " fill="#F79004" transform="translate(102.92051696777344,-0.1471710205078125)"/>
<path d="M0 0 C0.82411377 0.00161133 1.64822754 0.00322266 2.49731445 0.00488281 C9.73722134 0.14873603 16.04487117 1.59482463 22.75 4.375 C23.49378906 4.67535156 24.23757812 4.97570312 25.00390625 5.28515625 C34.57088151 9.60995329 42.39024668 17.15092183 48.75 25.375 C48.75 26.035 48.75 26.695 48.75 27.375 C49.57757813 27.1584375 50.40515625 26.941875 51.2578125 26.71875 C65.60115209 23.3730034 80.95692903 22.80777862 95.41015625 25.9375 C97.9891642 26.41971852 100.13666155 26.68219707 102.75 26.375 C104.29973772 24.95432124 104.29973772 24.95432124 105.4375 22.9375 C113.34702833 11.60384674 125.15197518 3.84205823 138.63427734 0.73461914 C142.42005177 0.0911336 146.16733429 0.03521569 150 0.0625 C150.834104 0.06813965 151.66820801 0.0737793 152.52758789 0.07958984 C168.70814543 0.39584264 181.73289336 6.72586522 193.75 17.375 C194.65298828 18.13683594 194.65298828 18.13683594 195.57421875 18.9140625 C211.80062305 33.66533914 221.96777162 58.42869221 223.125 80.05078125 C223.18070243 82.01267257 223.22251599 83.97501053 223.25 85.9375 C223.26869141 86.85370117 223.28738281 87.76990234 223.30664062 88.71386719 C223.2383922 95.8773273 221.41234865 100.8505575 217.109375 106.546875 C211.95867373 111.59756265 206.7678983 114.67948597 199.75 116.375 C199.76110306 116.92971481 199.77220612 117.48442963 199.78364563 118.05595398 C199.89619203 123.94688423 199.97045429 129.8374992 200.0246582 135.72924805 C200.04946067 137.91394495 200.08331392 140.09856205 200.12719727 142.28295898 C200.77087212 175.20124853 191.41059602 204.53312704 168.67602539 228.83251953 C154.15353272 243.88141385 134.99005595 253.6044605 114.75 258.375 C113.54085937 258.66117187 112.33171875 258.94734375 111.0859375 259.2421875 C100.04716737 261.72413796 89.50970006 262.5616191 78.22314453 262.56030273 C76.1498512 262.56247397 74.07710492 262.58064569 72.00390625 262.59960938 C59.56048551 262.65330337 47.36447453 261.45706966 35.3125 258.1875 C34.52029053 257.97464355 33.72808105 257.76178711 32.91186523 257.54248047 C3.77348311 249.3486754 -20.39604523 230.91877598 -35.26123047 204.58349609 C-50.35189524 176.74342176 -49.68323489 147.05613731 -48.25 116.375 C-48.8692334 116.17656494 -49.4884668 115.97812988 -50.12646484 115.77368164 C-50.93809082 115.50934326 -51.7497168 115.24500488 -52.5859375 114.97265625 C-53.3907959 114.71234619 -54.1956543 114.45203613 -55.02490234 114.18383789 C-62.44829094 111.48538645 -66.84164584 103.85787705 -70.43359375 97.171875 C-76.05040711 77.92958618 -68.07906289 56.3092321 -59.25 39.375 C-54.55451109 31.1879937 -48.84187094 24.10787353 -42.25 17.375 C-41.66089844 16.74980469 -41.07179687 16.12460938 -40.46484375 15.48046875 C-36.25539583 11.38203924 -31.50392178 8.71433275 -26.3125 6.0625 C-25.32817993 5.55565674 -25.32817993 5.55565674 -24.32397461 5.03857422 C-16.4715506 1.20694052 -8.68523322 -0.01795026 0 0 Z " fill="#F69005" transform="translate(174.25,123.625)"/>
<path d="M0 0 C0.82411377 0.00161133 1.64822754 0.00322266 2.49731445 0.00488281 C9.73722134 0.14873603 16.04487117 1.59482463 22.75 4.375 C23.49378906 4.67535156 24.23757812 4.97570312 25.00390625 5.28515625 C34.57088151 9.60995329 42.39024668 17.15092183 48.75 25.375 C48.75 26.035 48.75 26.695 48.75 27.375 C49.57757813 27.1584375 50.40515625 26.941875 51.2578125 26.71875 C65.60115209 23.3730034 80.95692903 22.80777862 95.41015625 25.9375 C97.9891642 26.41971852 100.13666155 26.68219707 102.75 26.375 C104.29973772 24.95432124 104.29973772 24.95432124 105.4375 22.9375 C113.34702833 11.60384674 125.15197518 3.84205823 138.63427734 0.73461914 C142.42005177 0.0911336 146.16733429 0.03521569 150 0.0625 C150.834104 0.06813965 151.66820801 0.0737793 152.52758789 0.07958984 C168.70814543 0.39584264 181.73289336 6.72586522 193.75 17.375 C194.65298828 18.13683594 194.65298828 18.13683594 195.57421875 18.9140625 C211.80062305 33.66533914 221.96777162 58.42869221 223.125 80.05078125 C223.18070243 82.01267257 223.22251599 83.97501053 223.25 85.9375 C223.26869141 86.85370117 223.28738281 87.76990234 223.30664062 88.71386719 C223.2383922 95.8773273 221.41234865 100.8505575 217.109375 106.546875 C211.95867373 111.59756265 206.7678983 114.67948597 199.75 116.375 C199.76110306 116.92971481 199.77220612 117.48442963 199.78364563 118.05595398 C199.89619203 123.94688423 199.97045429 129.8374992 200.0246582 135.72924805 C200.04946067 137.91394495 200.08331392 140.09856205 200.12719727 142.28295898 C200.77087212 175.20124853 191.41059602 204.53312704 168.67602539 228.83251953 C154.15353272 243.88141385 134.99005595 253.6044605 114.75 258.375 C113.54085937 258.66117187 112.33171875 258.94734375 111.0859375 259.2421875 C100.04716737 261.72413796 89.50970006 262.5616191 78.22314453 262.56030273 C76.1498512 262.56247397 74.07710492 262.58064569 72.00390625 262.59960938 C59.56048551 262.65330337 47.36447453 261.45706966 35.3125 258.1875 C34.52029053 257.97464355 33.72808105 257.76178711 32.91186523 257.54248047 C3.77348311 249.3486754 -20.39604523 230.91877598 -35.26123047 204.58349609 C-50.35189524 176.74342176 -49.68323489 147.05613731 -48.25 116.375 C-48.8692334 116.17656494 -49.4884668 115.97812988 -50.12646484 115.77368164 C-50.93809082 115.50934326 -51.7497168 115.24500488 -52.5859375 114.97265625 C-53.3907959 114.71234619 -54.1956543 114.45203613 -55.02490234 114.18383789 C-62.44829094 111.48538645 -66.84164584 103.85787705 -70.43359375 97.171875 C-76.05040711 77.92958618 -68.07906289 56.3092321 -59.25 39.375 C-54.55451109 31.1879937 -48.84187094 24.10787353 -42.25 17.375 C-41.66089844 16.74980469 -41.07179687 16.12460938 -40.46484375 15.48046875 C-36.25539583 11.38203924 -31.50392178 8.71433275 -26.3125 6.0625 C-25.32817993 5.55565674 -25.32817993 5.55565674 -24.32397461 5.03857422 C-16.4715506 1.20694052 -8.68523322 -0.01795026 0 0 Z M53.2421875 49.47265625 C50.12650275 50.27771573 47.96963963 50.41932756 44.8125 50.25 C42.69379162 50.28456606 42.69379162 50.28456606 40.75 51.375 C37.69155264 55.20209054 35.321017 59.32051517 32.86621094 63.54882812 C30.01574847 68.2123144 26.33089048 72.26733389 22.75 76.375 C21.50283203 77.84066406 21.50283203 77.84066406 20.23046875 79.3359375 C12.47477406 88.27053233 3.67650858 96.15000743 -6.7109375 101.91015625 C-15.741674 106.99496503 -20.91452889 110.89969314 -23.82861328 121.12451172 C-24.34708474 123.20069776 -24.80348639 125.28239985 -25.25 127.375 C-25.50652344 128.29796875 -25.76304687 129.2209375 -26.02734375 130.171875 C-31.2608272 151.65310117 -26.11970128 176.37275091 -15.5546875 195.43359375 C-13.8718313 198.1540855 -12.10986433 200.7728214 -10.25 203.375 C-9.6828125 204.17679688 -9.115625 204.97859375 -8.53125 205.8046875 C6.21916396 225.71774635 29.70612916 235.85919231 53.53662109 239.98901367 C60.2697899 240.79779196 67.04087403 240.72026825 73.8125 240.6875 C74.58968384 240.68567719 75.36686768 240.68385437 76.16760254 240.68197632 C102.43127842 240.57808841 128.6682797 235.65162184 148.75 217.375 C149.66652344 216.55128906 150.58304688 215.72757813 151.52734375 214.87890625 C168.52267367 198.81610472 177.42820126 176.15560213 178.97265625 153.04296875 C179.34606182 138.83732206 177.27547606 120.18249305 168.75 108.375 C166.24211861 106.59410841 166.24211861 106.59410841 163.3125 105.125 C155.84636604 100.97916377 148.52964785 96.24115387 142.53125 90.10546875 C140.92481765 88.1427304 140.92481765 88.1427304 138.75 88.375 C138.42 87.385 138.09 86.395 137.75 85.375 C136.925 84.715 136.1 84.055 135.25 83.375 C128.01904284 77.57301771 122.69018764 69.42056608 117.3125 61.9375 C116.88743164 61.34654541 116.46236328 60.75559082 116.02441406 60.14672852 C114.38104936 57.82682099 112.87396793 55.68700331 111.8203125 53.03515625 C110.82347078 51.09207717 110.82347078 51.09207717 108.17578125 50.6171875 C107.14839844 50.49601562 106.12101563 50.37484375 105.0625 50.25 C100.45304557 49.62917956 96.22236441 48.66510512 91.75 47.375 C78.47879615 45.42667433 66.13296344 45.67435026 53.2421875 49.47265625 Z " fill="#12110F" transform="translate(174.25,123.625)"/>
<path d="M0 0 C0.87315353 -0.00807175 1.74630707 -0.01614349 2.6459198 -0.02445984 C4.49610405 -0.03830239 6.34631387 -0.04902378 8.1965332 -0.05688477 C11.02149072 -0.07408795 13.84527496 -0.11797041 16.66992188 -0.16210938 C18.46743931 -0.17223722 20.2649667 -0.18075304 22.0625 -0.1875 C22.90537064 -0.20500809 23.74824127 -0.22251617 24.61665344 -0.24055481 C28.68775361 -0.2255544 30.71808951 -0.08536824 34.2409668 2.13989258 C37.46896981 5.54456627 37.74423238 8.22303699 37.71484375 12.79296875 C36.80903428 17.3658456 33.44338694 20.06717978 30.23046875 23.23828125 C29.54984375 24.12515625 28.86921875 25.01203125 28.16796875 25.92578125 C26.46292756 27.96083042 25.03167498 29.14382903 22.91796875 30.67578125 C19.89405088 32.96526105 19.89405088 32.96526105 20.10546875 36.23828125 C21.59641577 40.21413997 23.39746607 43.13540542 27.09375 45.359375 C31.79128369 47.29163292 36.70103726 46.67946341 41.48046875 45.30078125 C44.88287065 42.74897982 46.24205676 40.09031871 48.0546875 36.296875 C49.23046875 34.23828125 49.23046875 34.23828125 52.23046875 32.23828125 C55.42994488 31.89791145 57.60665461 31.99203883 60.60546875 33.17578125 C62.8692538 36.0490469 62.85079802 38.23835365 62.67578125 41.83203125 C61.49746925 48.19905048 57.13192739 53.01310129 52.16015625 56.91796875 C44.51566385 62.14841092 37.4478495 63.34570928 28.23046875 62.23828125 C21.80774859 60.58848912 17.01557791 57.77154256 12.23046875 53.23828125 C8.76119313 54.90353355 5.62689347 56.89409642 2.42578125 59.01953125 C-4.83213617 63.04883772 -13.32753542 63.62366738 -21.33203125 61.5859375 C-29.06350155 58.45845038 -35.76647357 53.01887745 -39.1484375 45.29296875 C-40.39034937 41.18450559 -40.78628081 37.15216278 -38.70703125 33.23828125 C-35.59043614 31.62971603 -33.20690656 31.81614744 -29.76953125 32.23828125 C-26.91832365 34.29748674 -25.86039234 36.04003887 -24.39453125 39.23828125 C-22.34921875 43.01424278 -20.61688503 44.35090015 -16.76953125 46.23828125 C-10.94417017 46.88554359 -6.95243628 46.22841877 -1.76953125 43.23828125 C1.52724837 39.5133858 1.52724837 39.5133858 2.08203125 34.77734375 C1.02126634 31.61451259 -0.29666033 30.5489653 -2.89453125 28.48828125 C-8.32606386 23.92440561 -15.13978045 17.85645379 -16.14453125 10.48828125 C-15.62237135 5.96289545 -13.92723747 4.47117095 -10.76953125 1.23828125 C-7.42936142 -0.43180366 -3.67469975 0.03197476 0 0 Z " fill="#12110F" transform="translate(238.76953125,280.76171875)"/>
<path d="M0 0 C2.31198249 1.81846315 3.32162617 2.72874848 4.03125 5.59765625 C-3.81333645 29.47383802 -27.69565478 50.82432855 -49.40625 62.09765625 C-61.01613075 67.56294586 -61.01613075 67.56294586 -66.96875 66.59765625 C-69.07421875 65.08203125 -69.07421875 65.08203125 -70.96875 62.59765625 C-71.43765191 59.71725882 -71.63552366 57.35135294 -71.59375 54.47265625 C-71.58537109 53.68149414 -71.57699219 52.89033203 -71.56835938 52.07519531 C-70.91233456 34.42533618 -62.18607336 16.83987464 -49.68432617 4.59472656 C-34.40312309 -9.42243728 -17.22957417 -10.22324417 0 0 Z " fill="#F59006" transform="translate(195.96875,152.40234375)"/>
<path d="M0 0 C2.28089209 1.72033387 4.42452696 3.52283783 6.5546875 5.42578125 C7.46154297 6.19341797 7.46154297 6.19341797 8.38671875 6.9765625 C19.95227618 17.49782581 27.97483522 35.18998846 28.92578125 50.78515625 C28.958387 52.24850209 28.9804886 53.71211895 28.9921875 55.17578125 C29.02505859 55.91699219 29.05792969 56.65820312 29.09179688 57.421875 C29.13001092 61.29191597 28.90500006 63.04210559 26.2578125 65.94140625 C21.74062966 68.42194018 18.01750771 67.11763357 13.34375 65.8046875 C-0.18618653 61.10741718 -11.3684577 51.275552 -21.4453125 41.42578125 C-22.31929688 40.61367187 -23.19328125 39.8015625 -24.09375 38.96484375 C-33.23719391 30.27153862 -42.62649771 18.62736021 -46.4453125 6.42578125 C-45.19253726 2.00894546 -41.77645151 0.16303128 -38.06640625 -2.17578125 C-25.77112452 -8.73570802 -11.66000259 -7.5063595 0 0 Z " fill="#F58F06" transform="translate(346.4453125,151.57421875)"/>
<path d="M0 0 C4.70517195 3.34590005 8.27238035 6.89980106 9.29296875 12.7578125 C9.44746378 18.15778171 9.00655551 22.48426635 5.8125 27 C1.71220714 30.88448797 -1.89707035 32.74070608 -7.5 33.375 C-13.37011858 32.77803879 -17.55897406 30.71204009 -21.625 26.4375 C-24.91700004 21.30197994 -24.79819794 15.92037721 -24.1875 10 C-22.00223658 5.54853749 -19.2480479 2.81114855 -15.1875 0 C-10.06569666 -1.70726778 -5.14325903 -1.61357146 0 0 Z " fill="#101010" transform="translate(309.1875,235)"/>
<path d="M0 0 C4.77153675 2.1574866 7.26293064 4.60399711 9.76953125 9.31640625 C11.12725291 13.38957123 11.28818973 17.05756265 10.76953125 21.31640625 C8.33861937 26.17823002 5.05671539 29.12382232 0.76953125 32.31640625 C-4.21126258 33.97667086 -8.53320504 33.9154405 -13.41796875 32.19140625 C-18.11464315 29.06028998 -21.93222522 24.89885343 -23.23046875 19.31640625 C-23.32049564 13.26209823 -22.19333841 9.0498339 -18.23046875 4.31640625 C-12.51236736 -0.72096878 -7.48432373 -2.29379449 0 0 Z " fill="#14110E" transform="translate(204.23046875,234.68359375)"/>
<path d="M0 0 C2.31 0.66 4.62 1.32 7 2 C7 2.66 7 3.32 7 4 C7.763125 3.95875 8.52625 3.9175 9.3125 3.875 C12 4 12 4 15 6 C15 6.66 15 7.32 15 8 C16.98 8 18.96 8 21 8 C21 8.66 21 9.32 21 10 C21.969375 9.979375 22.93875 9.95875 23.9375 9.9375 C27 10 27 10 28 11 C44.56254269 15.2287343 60.99209372 15.79317359 78 16 C78 15.34 78 14.68 78 14 C78.97839844 13.96261719 79.95679688 13.92523438 80.96484375 13.88671875 C87.57315129 13.5553287 93.63629323 13.18835149 99.859375 10.765625 C103.78531624 9.36145624 107.90359565 8.72691935 112 8 C112 7.34 112 6.68 112 6 C113.65 6 115.3 6 117 6 C99.3862927 20.92392934 66.50369292 18.18617484 45 17 C38.45909328 16.31308687 32.28716 14.89467074 26 13 C24.89785156 12.69964844 23.79570312 12.39929688 22.66015625 12.08984375 C14.97352655 9.80462951 7.78005382 6.26775481 1 2 C0.67 1.34 0.34 0.68 0 0 Z " fill="#D5871D" transform="translate(186,347)"/>
<path d="M0 0 C0.66 0 1.32 0 2 0 C2 0.66 2 1.32 2 2 C3.98 1.67 5.96 1.34 8 1 C5.24010006 3.34173328 2.81697304 5.08616663 -0.4765625 6.63671875 C-4.88303041 9.12906747 -5.91414989 12.3753044 -7.3125 17.0625 C-7.68012451 18.21347168 -7.68012451 18.21347168 -8.05517578 19.38769531 C-8.73880028 21.58324391 -9.3783542 23.78621773 -10 26 C-10.26941406 26.93199219 -10.53882813 27.86398438 -10.81640625 28.82421875 C-13.71822731 41.42583329 -12.66911419 56.27300428 -11 69 C-11.66 68.67 -12.32 68.34 -13 68 C-13.37890625 66.00390625 -13.37890625 66.00390625 -13.5625 63.5625 C-13.8061175 60.15371795 -13.8061175 60.15371795 -15 57 C-15.95439045 44.59292418 -15.63597827 31.69206899 -10.76953125 20.11328125 C-9.82321347 17.5145101 -9.32754497 14.89097736 -8.75 12.1875 C-7.52640547 7.4121743 -7.52640547 7.4121743 -5.25390625 5.6328125 C-3.3125 4.8125 -3.3125 4.8125 0 4 C0 2.68 0 1.36 0 0 Z " fill="#301801" transform="translate(160,225)"/>
<path d="M0 0 C4.0367099 1.93425683 7.76799903 4.29437744 11.5625 6.66015625 C18.37542628 10.40508207 27.96703444 10.12235788 35.3125 8 C36.6428125 7.505 36.6428125 7.505 38 7 C35.6185463 9.4897016 34.22628652 10.94046531 30.66162109 11.11352539 C29.23197021 11.10567017 29.23197021 11.10567017 27.7734375 11.09765625 C26.7421875 11.09443359 25.7109375 11.09121094 24.6484375 11.08789062 C23.56820312 11.07951172 22.48796875 11.07113281 21.375 11.0625 C19.74304688 11.05573242 19.74304688 11.05573242 18.078125 11.04882812 C15.38536211 11.03701776 12.69270812 11.02054778 10 11 C10 10.01 10 9.02 10 8 C9.01 8 8.02 8 7 8 C7 7.34 7 6.68 7 6 C5.35 6.33 3.7 6.66 2 7 C1.67 6.01 1.34 5.02 1 4 C1.33 3.34 1.66 2.68 2 2 C1.34 2 0.68 2 0 2 C-0.103125 2.556875 -0.20625 3.11375 -0.3125 3.6875 C-1.14178408 6.4769101 -2.34299056 8.6139064 -4 11 C-4.66 11 -5.32 11 -6 11 C-6 10.01 -6 9.02 -6 8 C-6.61488281 8.20496094 -7.22976562 8.40992188 -7.86328125 8.62109375 C-18.46114865 12.15371622 -18.46114865 12.15371622 -22.5625 12.1875 C-23.74005859 12.20876953 -23.74005859 12.20876953 -24.94140625 12.23046875 C-27 12 -27 12 -29 10 C-28.17757812 9.97421875 -27.35515625 9.9484375 -26.5078125 9.921875 C-15.91485536 9.38366471 -7.79892763 7.38845775 0 0 Z " fill="#DD8E1D" transform="translate(249,333)"/>
<path d="M0 0 C0 3 0 3 -1.25 4.53515625 C-2.11625 5.29119141 -2.11625 5.29119141 -3 6.0625 C-3.556875 6.56910156 -4.11375 7.07570312 -4.6875 7.59765625 C-7.96749963 9.58671008 -11.26866603 10.11702159 -15 11 C-14.9592334 12.09763672 -14.9184668 13.19527344 -14.87646484 14.32617188 C-14.72570055 18.47829749 -14.59198702 22.63084043 -14.46289062 26.78369141 C-14.40521886 28.56606936 -14.34319024 30.34831277 -14.27636719 32.13037109 C-13.84693808 43.67941158 -14.19060545 54.57326256 -16 66 C-16.33563616 68.3330032 -16.66964573 70.66624303 -17 73 C-18.485 73.495 -18.485 73.495 -20 74 C-19.78561279 73.13503906 -19.57122559 72.27007812 -19.3503418 71.37890625 C-16.53719191 58.57682213 -16.65821448 46.05701885 -16.8125 33 C-16.82758404 30.76042573 -16.84126582 28.52084156 -16.85351562 26.28125 C-16.88620312 20.85394659 -16.93610326 15.42702114 -17 10 C-16.02417969 9.52949219 -15.04835938 9.05898437 -14.04296875 8.57421875 C-12.75765492 7.94563461 -11.47250733 7.31671048 -10.1875 6.6875 C-9.54490234 6.37876953 -8.90230469 6.07003906 -8.24023438 5.75195312 C-5.04392384 4.17863965 -2.29422893 2.77183792 0 0 Z " fill="#CC831D" transform="translate(390,230)"/>
<path d="M0 0 C5.92650126 -0.04939701 11.85288297 -0.08571817 17.77954102 -0.10986328 C19.79616381 -0.11992773 21.81277199 -0.13358047 23.8293457 -0.15087891 C26.72611089 -0.17510769 29.62268331 -0.18647859 32.51953125 -0.1953125 C33.42274612 -0.20563507 34.325961 -0.21595764 35.25654602 -0.22659302 C36.09719101 -0.22674408 36.937836 -0.22689514 37.80395508 -0.22705078 C38.54341873 -0.231492 39.28288239 -0.23593323 40.04475403 -0.24050903 C42 0 42 0 45 2 C45 2.66 45 3.32 45 4 C45.99 4.33 46.98 4.66 48 5 C48.625 8.375 48.625 8.375 49 12 C48.34 12.66 47.68 13.32 47 14 C46.609375 12.01432292 46.21875 10.02864583 45.828125 8.04296875 C44.66836387 5.18185991 43.74012326 4.49614092 41 3 C37.80555272 2.58123043 34.63871299 2.6515679 31.421875 2.70703125 C30.4953009 2.71127609 29.56872681 2.71552094 28.61407471 2.71989441 C25.65908566 2.73666678 22.70478239 2.77431645 19.75 2.8125 C17.74480153 2.8275487 15.73959235 2.84123678 13.734375 2.85351562 C8.82265304 2.88656562 3.91144274 2.93833818 -1 3 C-0.67 2.01 -0.34 1.02 0 0 Z " fill="#D38B22" transform="translate(229,279)"/>
<path d="M0 0 C0.33 0 0.66 0 1 0 C1 1.65 1 3.3 1 5 C1.66 5 2.32 5 3 5 C4.76462683 8.08809695 5 9.23312136 5 13 C5.66 13 6.32 13 7 13 C10 19.625 10 19.625 10 23 C11.32 22.67 12.64 22.34 14 22 C14.33 24.64 14.66 27.28 15 30 C15.66 30 16.32 30 17 30 C17.66 31.65 18.32 33.3 19 35 C19.66 35 20.32 35 21 35 C21.33 36.65 21.66 38.3 22 40 C20 38.625 20 38.625 18 37 C18 36.34 18 35.68 18 35 C17.34 35 16.68 35 16 35 C14.48081665 32.94606411 13.10320707 30.91036354 11.75 28.75 C11.15046509 27.80459351 11.15046509 27.80459351 10.53881836 26.84008789 C-1.56086991 7.45869778 -1.56086991 7.45869778 -0.625 1.6875 C-0.41875 1.130625 -0.2125 0.57375 0 0 Z " fill="#EFB660" transform="translate(6,426)"/>
<path d="M0 0 C0 0.66 0 1.32 0 2 C-2.31 2 -4.62 2 -7 2 C-7 2.66 -7 3.32 -7 4 C-8.093125 4.12375 -9.18625 4.2475 -10.3125 4.375 C-14.07381802 4.75464801 -14.07381802 4.75464801 -17 7 C-19.29692078 7.20254517 -19.29692078 7.20254517 -22.0222168 7.13525391 C-23.04304855 7.11508209 -24.06388031 7.09491028 -25.11564636 7.0741272 C-26.76576469 7.02583267 -26.76576469 7.02583267 -28.44921875 6.9765625 C-30.14084892 6.93902359 -30.14084892 6.93902359 -31.86665344 6.90072632 C-35.47390493 6.81845772 -39.08061456 6.72189352 -42.6875 6.625 C-45.13083713 6.56676754 -47.5741966 6.50946411 -50.01757812 6.453125 C-56.01201969 6.31286862 -62.00607812 6.16086901 -68 6 C-68.33 5.34 -68.66 4.68 -69 4 C-67.24079224 4.02356567 -67.24079224 4.02356567 -65.44604492 4.04760742 C-60.99722462 4.10286817 -56.54843291 4.13669081 -52.09936523 4.16479492 C-50.1920864 4.1796668 -48.28484037 4.19997049 -46.37768555 4.22631836 C-32.80296204 4.40884167 -19.20250066 4.08471911 -6.01457214 0.45329285 C-4 0 -4 0 0 0 Z " fill="#D88B1E" transform="translate(293,381)"/>
<path d="M0 0 C0.33 0 0.66 0 1 0 C1.03440186 0.58676514 1.06880371 1.17353027 1.10424805 1.77807617 C2.29262359 20.75707848 5.18433801 38.53956495 12.765625 56.06640625 C13.74928203 58.40414812 14.49206704 60.52685022 15 63 C14.34 62.67 13.68 62.34 13 62 C13 61.34 13 60.68 13 60 C12.34 60 11.68 60 11 60 C8.69 53.4 6.38 46.8 4 40 C3.67 40 3.34 40 3 40 C2.91435791 39.3387915 2.82871582 38.67758301 2.74047852 37.99633789 C2.35220172 35.01780129 1.9574395 32.04016015 1.5625 29.0625 C1.42779297 28.02158203 1.29308594 26.98066406 1.15429688 25.90820312 C1.02216797 24.91884766 0.89003906 23.92949219 0.75390625 22.91015625 C0.63345947 21.99371338 0.5130127 21.07727051 0.38891602 20.13305664 C0.21324927 18.02364788 0.21324927 18.02364788 -1 17 C-1.33111384 11.28341698 -1.21293283 5.60981434 0 0 Z " fill="#CF8621" transform="translate(124,265)"/>
<path d="M0 0 C0 0.66 0 1.32 0 2 C-5.47022767 4.24670065 -10.13304103 5.38242537 -16 6 C-16.33 6.33 -16.66 6.66 -17 7 C-18.37890565 7.10324385 -19.76300314 7.13849562 -21.14575195 7.14526367 C-22.46897209 7.15483345 -22.46897209 7.15483345 -23.81892395 7.16459656 C-25.26400581 7.16626579 -25.26400581 7.16626579 -26.73828125 7.16796875 C-27.72942429 7.17129715 -28.72056732 7.17462555 -29.741745 7.17805481 C-31.85101863 7.18313321 -33.96030034 7.18546286 -36.06958008 7.18530273 C-39.26072006 7.18746492 -42.45150053 7.20554264 -45.64257812 7.22460938 C-65.52551121 7.27795569 -65.52551121 7.27795569 -75 5 C-75 4.34 -75 3.68 -75 3 C-74.26096436 3.14074951 -73.52192871 3.28149902 -72.76049805 3.42651367 C-63.38619512 5.05629632 -54.29257321 5.35550565 -44.8125 5.3125 C-44.04296997 5.31167419 -43.27343994 5.31084839 -42.48059082 5.30999756 C-29.65534106 5.27830969 -17.58092168 4.46920399 -5.171875 0.8984375 C-2 0 -2 0 0 0 Z " fill="#3F2303" transform="translate(293,358)"/>
<path d="M0 0 C0 3.59857954 -0.95830515 5.09451118 -3 8 C-3.66 8 -4.32 8 -5 8 C-5.19335938 8.69867188 -5.38671875 9.39734375 -5.5859375 10.1171875 C-5.84632813 11.02726562 -6.10671875 11.93734375 -6.375 12.875 C-6.63023437 13.77992188 -6.88546875 14.68484375 -7.1484375 15.6171875 C-8 18 -8 18 -10 20 C-10.99 20 -11.98 20 -13 20 C-13 20.99 -13 21.98 -13 23 C-12.34 23 -11.68 23 -11 23 C-11.33 23.99 -11.66 24.98 -12 26 C-16 20.78787879 -16 20.78787879 -16 17.375 C-14.79700052 14.51787623 -13.39040423 12.95578528 -11 11 C-10.34 11 -9.68 11 -9 11 C-8.74476563 10.41734375 -8.48953125 9.8346875 -8.2265625 9.234375 C-6.88258913 6.78611777 -5.38189704 5.18256752 -3.375 3.25 C-2.74335938 2.63640625 -2.11171875 2.0228125 -1.4609375 1.390625 C-0.73777344 0.70226562 -0.73777344 0.70226562 0 0 Z " fill="#E58D12" transform="translate(274,298)"/>
<path d="M0 0 C1.65 0 3.3 0 5 0 C-11.2767375 13.79112734 -40.51690202 11.40598462 -60 11 C-60 10.67 -60 10.34 -60 10 C-51.42 10 -42.84 10 -34 10 C-34 9.34 -34 8.68 -34 8 C-32.53240234 7.94392578 -32.53240234 7.94392578 -31.03515625 7.88671875 C-24.42684871 7.5553287 -18.36370677 7.18835149 -12.140625 4.765625 C-8.21468376 3.36145624 -4.09640435 2.72691935 0 2 C0 1.34 0 0.68 0 0 Z " fill="#E38F21" transform="translate(298,353)"/>
<path d="M0 0 C2.3057419 -0.01432138 4.38298862 0.15784772 6.640625 0.609375 C4.30848352 1.81565508 2.14420361 2.7748488 -0.359375 3.609375 C-0.689375 4.599375 -1.019375 5.589375 -1.359375 6.609375 C-2.019375 6.609375 -2.679375 6.609375 -3.359375 6.609375 C-2.699375 8.259375 -2.039375 9.909375 -1.359375 11.609375 C-4.31595736 14.8616156 -7.22200131 16.23025044 -11.359375 17.609375 C-13.02526737 19.46749213 -13.02526737 19.46749213 -14.546875 21.671875 C-15.07667969 22.40535156 -15.60648438 23.13882813 -16.15234375 23.89453125 C-16.74982422 24.74337891 -16.74982422 24.74337891 -17.359375 25.609375 C-18.019375 25.279375 -18.679375 24.949375 -19.359375 24.609375 C-18.63492188 23.71476562 -17.91046875 22.82015625 -17.1640625 21.8984375 C-16.18648103 20.67789878 -15.20999253 19.45648414 -14.234375 18.234375 C-13.72664551 17.60257324 -13.21891602 16.97077148 -12.69580078 16.31982422 C-9.76219217 12.60605055 -7.37852261 8.9739396 -5.234375 4.734375 C-3.0404317 0.78527706 -3.0404317 0.78527706 0 0 Z " fill="#DF8C18" transform="translate(217.359375,174.390625)"/>
<path d="M0 0 C1.31047806 -0.00006042 1.31047806 -0.00006042 2.64743042 -0.00012207 C4.48817161 0.00522504 6.32891285 0.02277323 8.16943359 0.05175781 C10.9899646 0.09371693 13.80811489 0.09281628 16.62890625 0.0859375 C18.41928745 0.09642688 20.20965635 0.10936363 22 0.125 C22.84378204 0.12520142 23.68756409 0.12540283 24.55691528 0.12561035 C30.46886688 0.24552669 30.46886688 0.24552669 32.61300659 2.11999512 C33.02688629 2.60633423 33.44076599 3.09267334 33.8671875 3.59375 C31.89927246 3.57803955 31.89927246 3.57803955 29.89160156 3.56201172 C25.02379078 3.52580953 20.1559919 3.50284865 15.28808594 3.48388672 C13.18129475 3.47382966 11.07451751 3.46018232 8.96777344 3.44287109 C5.93941809 3.41861 2.91124731 3.40726392 -0.1171875 3.3984375 C-1.52988922 3.38295364 -1.52988922 3.38295364 -2.97113037 3.36715698 C-3.85174133 3.36700592 -4.73235229 3.36685486 -5.63964844 3.36669922 C-6.41242126 3.362258 -7.18519409 3.35781677 -7.98138428 3.35324097 C-10.40462903 3.62413648 -12.03054452 4.38826907 -14.1328125 5.59375 C-9.81071399 0.07599124 -6.55757248 -0.12803243 0 0 Z " fill="#220E01" transform="translate(239.1328125,280.40625)"/>
<path d="M0 0 C1.52281343 4.77063123 0.12678824 8.43798897 -1.1875 13.125 C-1.39697266 13.94871094 -1.60644531 14.77242188 -1.82226562 15.62109375 C-2.03947266 16.40871094 -2.25667969 17.19632812 -2.48046875 18.0078125 C-2.67535889 18.72598145 -2.87024902 19.44415039 -3.07104492 20.18408203 C-4.27597413 22.5394732 -5.58636455 23.04914579 -8 24 C-8 24.66 -8 25.32 -8 26 C-8.66 26 -9.32 26 -10 26 C-10.2475 26.66 -10.495 27.32 -10.75 28 C-11.76386328 30.43327188 -12.77979852 32.85262984 -13.875 35.25 C-14.18179687 35.93578125 -14.48859375 36.6215625 -14.8046875 37.328125 C-16 39 -16 39 -18.1328125 39.734375 C-18.74898438 39.82203125 -19.36515625 39.9096875 -20 40 C-18.13163812 36.6525183 -16.23203679 33.36237234 -14.1640625 30.1328125 C-8.03819827 20.53327814 -3.507163 10.86564985 0 0 Z " fill="#DB8C1C" transform="translate(369,306)"/>
<path d="M0 0 C2.89453715 1.09200825 5.31031353 2.43509151 8 4 C8 5.32 8 6.64 8 8 C7.566875 7.505 7.13375 7.01 6.6875 6.5 C5.00259517 4.66781808 5.00259517 4.66781808 2 5 C2 4.34 2 3.68 2 3 C-4.08494584 1.82571221 -7.68056567 1.59556203 -13 5 C-14.53045985 8.55892288 -14.53045985 8.55892288 -15 12 C-16.32 12 -17.64 12 -19 12 C-19 15.3 -19 18.6 -19 22 C-21 20 -21 20 -21.1171875 18.046875 C-20.40854365 11.32618818 -18.56446249 7.25916934 -13.375 2.6875 C-8.95301207 -0.45443879 -5.33328039 -0.65081235 0 0 Z " fill="#2D1601" transform="translate(202,234)"/>
<path d="M0 0 C0.33 0.66 0.66 1.32 1 2 C1.66 2 2.32 2 3 2 C3.11638036 5.24969769 3.18730581 8.4988583 3.25 11.75 C3.28351563 12.67039063 3.31703125 13.59078125 3.3515625 14.5390625 C3.45041284 21.35973573 3.45041284 21.35973573 1.18359375 24.58203125 C-1.9970522 26.64745966 -4.2004951 26.93771303 -8 27 C-13.33052275 25.78345213 -18.19579369 23.58688032 -23 21 C-22.67 20.34 -22.34 19.68 -22 19 C-21.14277344 19.37253906 -20.28554688 19.74507812 -19.40234375 20.12890625 C-10.88336329 23.91406497 -10.88336329 23.91406497 -2 23 C0.20595109 21.21345939 0.20595109 21.21345939 0.22705078 18.84521484 C0.21657715 17.97590332 0.20610352 17.1065918 0.1953125 16.2109375 C0.18886719 15.26992187 0.18242187 14.32890625 0.17578125 13.359375 C0.15064453 11.88210937 0.15064453 11.88210937 0.125 10.375 C0.11597656 9.38242188 0.10695313 8.38984375 0.09765625 7.3671875 C0.07404116 4.91121866 0.04110799 2.45572832 0 0 Z " fill="#351A01" transform="translate(374,194)"/>
<path d="M0 0 C-5.36222266 4.36921847 -10.27835445 5.31644283 -17 6 C-17 6.66 -17 7.32 -17 8 C-19.07573081 9.20284401 -21.15883095 10.38705701 -23.25 11.5625 C-23.83652344 11.90474609 -24.42304687 12.24699219 -25.02734375 12.59960938 C-29.45794859 15.06382218 -29.45794859 15.06382218 -32.421875 14.71484375 C-32.94265625 14.47894531 -33.4634375 14.24304687 -34 14 C-27.24067164 9.03902506 -20.24639956 5.62637454 -12.5 2.5 C-11.61538086 2.13777344 -10.73076172 1.77554687 -9.81933594 1.40234375 C-8.98176758 1.07363281 -8.14419922 0.74492188 -7.28125 0.40625 C-6.52908203 0.11041016 -5.77691406 -0.18542969 -5.00195312 -0.49023438 C-3 -1 -3 -1 0 0 Z " fill="#F1B762" transform="translate(79,4)"/>
<path d="M0 0 C3.47951523 0.13818532 6.95850495 0.28682601 10.4375 0.4375 C11.92733398 0.49647461 11.92733398 0.49647461 13.44726562 0.55664062 C14.86362305 0.61948242 14.86362305 0.61948242 16.30859375 0.68359375 C17.18314209 0.72025146 18.05769043 0.75690918 18.95874023 0.79467773 C21 1 21 1 22 2 C24.8116338 2.08861992 27.59858255 2.11522355 30.41015625 2.09765625 C31.67320839 2.09553383 31.67320839 2.09553383 32.96177673 2.09336853 C35.66205335 2.08775263 38.36224828 2.07519748 41.0625 2.0625 C42.88867068 2.05748705 44.71484266 2.05292379 46.54101562 2.04882812 C51.02737542 2.03777804 55.51367384 2.02050279 60 2 C60 2.33 60 2.66 60 3 C52.491437 4.04054365 45.04253328 4.18618556 37.47314453 4.18530273 C35.3998512 4.18747397 33.32710492 4.20564569 31.25390625 4.22460938 C7.34631556 4.32717289 7.34631556 4.32717289 0 0 Z " fill="#391C02" transform="translate(215,382)"/>
<path d="M0 0 C2.375 0.9375 2.375 0.9375 4 3 C4.99276661 8.68888733 4.03904175 13.06155715 1 18 C-0.19126781 14.42619658 0.2650555 12.49116698 0.9375 8.8125 C1.13214844 7.72582031 1.32679688 6.63914062 1.52734375 5.51953125 C1.68332031 4.68808594 1.83929688 3.85664063 2 3 C-0.97 3 -3.94 3 -7 3 C-7.28875 4.093125 -7.5775 5.18625 -7.875 6.3125 C-9 10 -9 10 -11 13 C-12.32 12.67 -13.64 12.34 -15 12 C-14.401875 11.113125 -13.80375 10.22625 -13.1875 9.3125 C-11.86226631 7.30571755 -10.57810471 5.26979662 -9.375 3.1875 C-6.95442069 -0.66342163 -4.29969183 -0.34397535 0 0 Z " fill="#2F1503" transform="translate(297,313)"/>
<path d="M0 0 C0.43828125 0.35191406 0.8765625 0.70382812 1.328125 1.06640625 C12.02081938 9.3901907 23.3005192 14.60030678 36 19 C36 19.33 36 19.66 36 20 C27.87463448 19.27452094 21.89224795 17.26959846 15 12.875 C10.52493698 10.07635378 7.24730689 9.1943447 2 9 C2.226875 8.401875 2.45375 7.80375 2.6875 7.1875 C2.790625 6.465625 2.89375 5.74375 3 5 C1.60411246 3.35405861 1.60411246 3.35405861 0 2 C0 1.34 0 0.68 0 0 Z " fill="#2C1602" transform="translate(176,340)"/>
<path d="M0 0 C5.75 0.875 5.75 0.875 8 2 C8 2.66 8 3.32 8 4 C11.3 4.33 14.6 4.66 18 5 C18 5.66 18 6.32 18 7 C18.70125 7.18175781 19.4025 7.36351562 20.125 7.55078125 C25.89678529 9.07999067 31.44899107 10.80054363 37 13 C37 13.33 37 13.66 37 14 C23.71058681 13.18636246 11.55048163 7.17568124 0 1 C0 0.67 0 0.34 0 0 Z " fill="#F0BA65" transform="translate(51,485)"/>
<path d="M0 0 C0.66 0 1.32 0 2 0 C3.46961877 15.95586098 3.09464518 31.99477279 3 48 C2.67 48 2.34 48 2 48 C1.97494385 47.18732666 1.9498877 46.37465332 1.92407227 45.53735352 C1.80850882 41.87889248 1.68560416 38.22071472 1.5625 34.5625 C1.52318359 33.28310547 1.48386719 32.00371094 1.44335938 30.68554688 C1.40146484 29.47060547 1.35957031 28.25566406 1.31640625 27.00390625 C1.27974854 25.87799072 1.24309082 24.7520752 1.20532227 23.59204102 C1.28781955 21.07146559 1.28781955 21.07146559 0 20 C-0.08669432 18.5112814 -0.10703494 17.018555 -0.09765625 15.52734375 C-0.09443359 14.62822266 -0.09121094 13.72910156 -0.08789062 12.80273438 C-0.07951172 11.85720703 -0.07113281 10.91167969 -0.0625 9.9375 C-0.05798828 8.98810547 -0.05347656 8.03871094 -0.04882812 7.06054688 C-0.0370011 4.70696935 -0.02052025 2.35351523 0 0 Z " fill="#2A1402" transform="translate(371,240)"/>
<path d="M0 0 C-0.66 0.33 -1.32 0.66 -2 1 C-2.845625 0.71125 -3.69125 0.4225 -4.5625 0.125 C-8.15790011 -1.0516764 -11.39618416 -1.44625297 -15.14453125 -1.75390625 C-17 -2 -17 -2 -18 -3 C-20.18292774 -3.23481693 -22.37203174 -3.41363323 -24.5625 -3.5625 C-25.76003906 -3.64628906 -26.95757812 -3.73007813 -28.19140625 -3.81640625 C-29.11824219 -3.87699219 -30.04507812 -3.93757813 -31 -4 C-31 -3.34 -31 -2.68 -31 -2 C-34.63 -2 -38.26 -2 -42 -2 C-31.83202272 -8.77865152 -9.74187226 -6.49458151 0 0 Z " fill="#321A03" transform="translate(349,129)"/>
<path d="M0 0 C0.33 0 0.66 0 1 0 C1.22174933 1.45635371 1.42698698 2.91522956 1.625 4.375 C1.74101563 5.18710938 1.85703125 5.99921875 1.9765625 6.8359375 C1.98429687 7.55007812 1.99203125 8.26421875 2 9 C1.34 9.66 0.68 10.32 0 11 C-0.27861397 13.81711479 -0.27861397 13.81711479 -0.1953125 17.1015625 C-0.18886719 18.31328125 -0.18242188 19.525 -0.17578125 20.7734375 C-0.15902344 22.04445312 -0.14226562 23.31546875 -0.125 24.625 C-0.11146484 26.543125 -0.11146484 26.543125 -0.09765625 28.5 C-0.07402303 31.66685167 -0.04107629 34.83333424 0 38 C-5.29763539 30.05354691 -4.13689814 17.12968969 -2.328125 7.94140625 C-1.64328876 5.2505167 -0.91194071 2.62182955 0 0 Z " fill="#3B1C00" transform="translate(106,185)"/>
<path d="M0 0 C1.18940186 0.0012085 1.18940186 0.0012085 2.40283203 0.00244141 C10.01953112 0.08153969 17.50745862 0.48978345 24.3125 4.1875 C22.3325 4.5175 20.3525 4.8475 18.3125 5.1875 C18.3125 4.5275 18.3125 3.8675 18.3125 3.1875 C6.4325 3.1875 -5.4475 3.1875 -17.6875 3.1875 C-12.324426 -0.38788266 -6.25187326 -0.00658785 0 0 Z " fill="#D1841D" transform="translate(248.6875,169.8125)"/>
<path d="M0 0 C0.81283447 0.33209473 0.81283447 0.33209473 1.64208984 0.67089844 C13.94731986 5.65103154 25.94204214 9.57654506 39 12 C39 12.33 39 12.66 39 13 C29.73597885 13.34812606 21.81837198 11.6267491 13 9 C13 8.34 13 7.68 13 7 C8.545 6.01 8.545 6.01 4 5 C4 4.34 4 3.68 4 3 C2.68 2.67 1.36 2.34 0 2 C0 1.34 0 0.68 0 0 Z " fill="#DB8C1E" transform="translate(185,372)"/>
<path d="M0 0 C0.33 0 0.66 0 1 0 C1.09796875 0.88042969 1.1959375 1.76085937 1.296875 2.66796875 C1.44640625 3.82941406 1.5959375 4.99085938 1.75 6.1875 C1.88921875 7.33605469 2.0284375 8.48460937 2.171875 9.66796875 C3.10358237 13.41677247 4.3236694 15.25000893 7 18 C13.02762689 21.29813547 17.84257915 21.91852243 24.4375 20 C25.283125 19.67 26.12875 19.34 27 19 C27 19.66 27 20.32 27 21 C22.30743591 24.12837606 17.49517585 23.444616 12 23 C8.83099629 22.36520739 6.90948186 21.56249952 4 20 C2.625 17.375 2.625 17.375 2 15 C1.34 14.67 0.68 14.34 0 14 C-1.29970403 9.71097669 -1.14788965 5.43668936 -1 1 C-0.67 0.67 -0.34 0.34 0 0 Z " fill="#D3881E" transform="translate(284,246)"/>
<path d="M0 0 C0.66 0 1.32 0 2 0 C2.99 1.98 3.98 3.96 5 6 C4.34 6.66 3.68 7.32 3 8 C3.66 8.33 4.32 8.66 5 9 C5.33 9.99 5.66 10.98 6 12 C8.64 12.33 11.28 12.66 14 13 C10.85918951 14.86122103 8.64218116 15.45803187 5 15 C3.12109375 13.20703125 3.12109375 13.20703125 1.4375 10.8125 C0.84710938 9.99523437 0.25671875 9.17796875 -0.3515625 8.3359375 C-0.89554688 7.56507813 -1.43953125 6.79421875 -2 6 C-3.32917292 4.33001351 -4.66014102 2.66142513 -6 1 C-5.38125 1.20625 -4.7625 1.4125 -4.125 1.625 C-3.073125 1.810625 -3.073125 1.810625 -2 2 C-1.34 1.34 -0.68 0.68 0 0 Z " fill="#ED9013" transform="translate(218,136)"/>
<path d="M0 0 C0.66 0 1.32 0 2 0 C1.84273438 1.26199219 1.68546875 2.52398437 1.5234375 3.82421875 C1.13200208 7.33134276 0.89809935 10.8050099 0.7890625 14.33203125 C0.76070313 15.23244141 0.73234375 16.13285156 0.703125 17.06054688 C0.6504934 18.91449505 0.60639425 20.76870277 0.5703125 22.62304688 C0.539375 23.51701172 0.5084375 24.41097656 0.4765625 25.33203125 C0.45674316 26.13358643 0.43692383 26.9351416 0.41650391 27.76098633 C-0.09028984 30.48537404 -1.21124193 31.92163065 -3 34 C-2.86186975 29.85387186 -2.71321141 25.70818838 -2.5625 21.5625 C-2.52318359 20.37849609 -2.48386719 19.19449219 -2.44335938 17.97460938 C-2.40146484 16.84990234 -2.35957031 15.72519531 -2.31640625 14.56640625 C-2.27974854 13.52427979 -2.24309082 12.48215332 -2.20532227 11.40844727 C-2 9 -2 9 -1 8 C-0.76924918 6.65252916 -0.58846937 5.29622435 -0.4375 3.9375 C-0.2209375 1.9884375 -0.2209375 1.9884375 0 0 Z " fill="#E29020" transform="translate(103,188)"/>
<path d="M0 0 C1.32 0 2.64 0 4 0 C4 0.66 4 1.32 4 2 C6.64 1.67 9.28 1.34 12 1 C11.67 1.99 11.34 2.98 11 4 C13.20857055 3.85780436 15.41684987 3.71108153 17.625 3.5625 C19.46964844 3.44068359 19.46964844 3.44068359 21.3515625 3.31640625 C24.61532388 3.03336056 27.77943859 2.58961047 31 2 C27.18501827 5.81498173 23.05820364 6.31110592 17.8125 6.375 C11.63019305 6.29059991 6.36838028 5.14302606 1 2 C0.67 1.34 0.34 0.68 0 0 Z " fill="#371900" transform="translate(256,337)"/>
<path d="M0 0 C1.9375 0.6875 1.9375 0.6875 4 2 C5 4.25 5 4.25 5 7 C2.59694863 11.45009513 0.02837977 14.81027938 -4.75 16.6875 C-8.23212543 17.17112853 -11.47928262 17.17035729 -15 17 C-15.66 16.34 -16.32 15.68 -17 15 C-16.28972656 14.93941406 -15.57945312 14.87882812 -14.84765625 14.81640625 C-13.92855469 14.73261719 -13.00945312 14.64882813 -12.0625 14.5625 C-11.14597656 14.48128906 -10.22945312 14.40007812 -9.28515625 14.31640625 C-7.03840268 14.23955024 -7.03840268 14.23955024 -6 13 C-4.33382885 12.95936168 -2.66611905 12.957279 -1 13 C-0.87625 12.401875 -0.7525 11.80375 -0.625 11.1875 C0 9 0 9 2 6 C2.66 6 3.32 6 4 6 C3.67 5.34 3.34 4.68 3 4 C2.01 3.67 1.02 3.34 0 3 C0 2.01 0 1.02 0 0 Z " fill="#D88B1F" transform="translate(237,311)"/>
<path d="M0 0 C0 0.99 0 1.98 0 3 C-2.01171875 4.8671875 -2.01171875 4.8671875 -4.6875 6.875 C-7.59153681 9.09477569 -10.12489548 11.13381659 -12.625 13.8125 C-16.6933086 17.55962634 -21.71405286 18.72854724 -27 20 C-27 19.34 -27 18.68 -27 18 C-25.96101563 17.443125 -24.92203125 16.88625 -23.8515625 16.3125 C-15.27703166 11.64614464 -6.96964061 6.96964061 0 0 Z " fill="#DA8A1D" transform="translate(339,355)"/>
<path d="M0 0 C0.33 0.99 0.66 1.98 1 3 C0.34 3.66 -0.32 4.32 -1 5 C-1.12375 5.639375 -1.2475 6.27875 -1.375 6.9375 C-2.21696615 9.71598829 -3.56108587 10.52187022 -6 12 C-6.66 12 -7.32 12 -8 12 C-8.433125 12.928125 -8.433125 12.928125 -8.875 13.875 C-10 16 -10 16 -12 18 C-13.98821313 18.39764263 -15.98944339 18.73775349 -18 19 C-15.39994896 16.39521298 -12.79447372 13.79703214 -10.17578125 11.2109375 C-9.2213417 10.26563759 -8.26691468 9.32032502 -7.3125 8.375 C-6.58450195 7.65957031 -6.58450195 7.65957031 -5.84179688 6.9296875 C-3.60414685 4.70746954 -1.7575391 2.63630864 0 0 Z " fill="#371B02" transform="translate(335,327)"/>
<path d="M0 0 C0.61875 0.33 1.2375 0.66 1.875 1 C5.62026941 2.19848621 8.70459186 2.02328464 12.59765625 1.77734375 C15.53979592 2.05002987 16.81848591 3.07039285 19 5 C15.6312658 7.2458228 14.23727244 7.14647405 10.33984375 6.55859375 C6.0429207 5.53278407 2.03326967 3.77695283 -2 2 C-1.34 1.34 -0.68 0.68 0 0 Z " fill="#DF8917" transform="translate(354,212)"/>
<path d="M0 0 C0.33 1.32 0.66 2.64 1 4 C0.34 4 -0.32 4 -1 4 C-1.226875 4.680625 -1.45375 5.36125 -1.6875 6.0625 C-2.79494945 8.54107734 -3.8216699 10.19050626 -5.4375 12.3125 C-8.17711996 15.99234456 -9.55335142 19.66005426 -11 24 C-13.31 24.33 -15.62 24.66 -18 25 C-17.195625 24.113125 -16.39125 23.22625 -15.5625 22.3125 C-9.6768591 15.45993239 -4.5589712 7.78643336 0 0 Z " fill="#2D1603" transform="translate(196,165)"/>
<path d="M0 0 C0.33 0.99 0.66 1.98 1 3 C0.505 3.33 0.01 3.66 -0.5 4 C-2.88179561 7.17572747 -2.19168226 10.10246066 -2 14 C-2.66 14 -3.32 14 -4 14 C-4 13.34 -4 12.68 -4 12 C-4.99 12 -5.98 12 -7 12 C-7 12.66 -7 13.32 -7 14 C-7.66 14 -8.32 14 -9 14 C-9.33 15.65 -9.66 17.3 -10 19 C-10.99 19.33 -11.98 19.66 -13 20 C-11.49122712 15.62947855 -9.15352643 12.05541347 -6.5 8.3125 C-5.89478516 7.44141602 -5.89478516 7.44141602 -5.27734375 6.55273438 C-3.63165943 4.20369653 -2.03193123 2.03193123 0 0 Z " fill="#201306" transform="translate(128,145)"/>
<path d="M0 0 C-4.89991897 3.71186522 -9.66675253 6.46810117 -15.3125 8.875 C-16.02728516 9.1946875 -16.74207031 9.514375 -17.47851562 9.84375 C-19.29133158 10.62970225 -21.14371435 11.3230759 -23 12 C-23.66 11.67 -24.32 11.34 -25 11 C-24.67 10.34 -24.34 9.68 -24 9 C-22.35 9 -20.7 9 -19 9 C-19 8.34 -19 7.68 -19 7 C-15.535 6.505 -15.535 6.505 -12 6 C-12 5.01 -12 4.02 -12 3 C-11.01 3 -10.02 3 -9 3 C-9 2.34 -9 1.68 -9 1 C-5.47051709 -0.66670026 -3.71727674 -1.13583456 0 0 Z " fill="#F1B55F" transform="translate(455,482)"/>
<path d="M0 0 C4.36758574 2.16775915 8.0116772 5.11325437 11.66015625 8.3203125 C11.00015625 8.6503125 10.34015625 8.9803125 9.66015625 9.3203125 C7.11931087 8.38866919 5.69273342 7.35497795 3.83203125 5.375 C-3.29229839 -1.36492336 -14.08477704 -1.40946657 -23.33984375 -1.6796875 C-16.29098146 -5.89919207 -7.16132021 -2.78209562 0 0 Z " fill="#CF8721" transform="translate(341.33984375,148.6796875)"/>
<path d="M0 0 C0 3.41043496 -0.72211509 4.55584774 -2.4375 7.4375 C-4.13341491 10.29301484 -5.35238783 12.73216387 -6 16 C-6.99 16 -7.98 16 -9 16 C-9 16.99 -9 17.98 -9 19 C-10.32 19.33 -11.64 19.66 -13 20 C-11.56874399 16.08551482 -9.72488708 12.70866662 -7.5 9.1875 C-6.8915625 8.21167969 -6.283125 7.23585938 -5.65625 6.23046875 C-5.1096875 5.49441406 -4.563125 4.75835937 -4 4 C-3.34 4 -2.68 4 -2 4 C-1.34 2.68 -0.68 1.36 0 0 Z " fill="#EFAC4C" transform="translate(26,35)"/>
<path d="M0 0 C0.33 0 0.66 0 1 0 C1 2.64 1 5.28 1 8 C0.34 8 -0.32 8 -1 8 C-0.938125 9.03125 -0.87625 10.0625 -0.8125 11.125 C-1.01135595 15.23468973 -1.94467803 17.48882496 -4 21 C-4.66 21 -5.32 21 -6 21 C-6.33 22.32 -6.66 23.64 -7 25 C-6.48446258 16.57955552 -3.7852065 7.570413 0 0 Z " fill="#F0B862" transform="translate(8,63)"/>
<path d="M0 0 C1.32 0.33 2.64 0.66 4 1 C4 2.65 4 4.3 4 6 C4.99 6 5.98 6 7 6 C7 6.66 7 7.32 7 8 C8.98 8 10.96 8 13 8 C13 8.66 13 9.32 13 10 C7.26508549 10.88229454 4.23061188 8.50103025 -0.2421875 5.3125 C-0.82226562 4.879375 -1.40234375 4.44625 -2 4 C-1.34 2.68 -0.68 1.36 0 0 Z M6 3 C7.65 3 9.3 3 11 3 C10.01 4.485 10.01 4.485 9 6 C8.01 5.67 7.02 5.34 6 5 C6 4.34 6 3.68 6 3 Z " fill="#1D1104" transform="translate(114,229)"/>
<path d="M0 0 C11.52164009 -0.3690205 11.52164009 -0.3690205 17 2 C17 2.66 17 3.32 17 4 C16.05640625 3.89300781 15.1128125 3.78601563 14.140625 3.67578125 C5.43289501 2.86271008 -1.56762749 3.22061465 -10 6 C-10 5.34 -10 4.68 -10 4 C-6.3558226 1.5705484 -4.28758728 1.83820425 0 2 C0 1.34 0 0.68 0 0 Z " fill="#281603" transform="translate(320,143)"/>
<path d="M0 0 C4.80601986 2.79059218 9.39218947 5.8980099 14 9 C10.69246505 10.10251165 7.35433109 11.05066101 4 12 C3.34 10.35 2.68 8.7 2 7 C2.99 7 3.98 7 5 7 C4.67 6.34 4.34 5.68 4 5 C1.97536745 4.34786708 1.97536745 4.34786708 0 4 C0 2.68 0 1.36 0 0 Z " fill="#231506" transform="translate(332,200)"/>
<path d="M0 0 C0.66 0 1.32 0 2 0 C0.64737628 4.74130209 -1.33354354 8.32288579 -4.125 12.375 C-4.84945313 13.43460937 -5.57390625 14.49421875 -6.3203125 15.5859375 C-6.87460937 16.38257813 -7.42890625 17.17921875 -8 18 C-8.66 17.34 -9.32 16.68 -10 16 C-9.82624516 12.69865812 -9.19905231 11.23757856 -7.0625 8.6875 C-5 7 -5 7 -3 7 C-2.67 5.68 -2.34 4.36 -2 3 C-1.34 3 -0.68 3 0 3 C0 2.01 0 1.02 0 0 Z " fill="#E58F19" transform="translate(341,313)"/>
<path d="M0 0 C4.65395654 4.65395654 4.13914061 14.03310721 4.25 20.3125 C4.17759059 24.90446358 3.5663245 28.69260764 2 33 C1.67 33 1.34 33 1 33 C1.00523682 32.39115967 1.01047363 31.78231934 1.01586914 31.1550293 C1.23937816 15.54397211 1.23937816 15.54397211 0 0 Z " fill="#381A03" transform="translate(351,255)"/>
<path d="M0 0 C0.33 0.66 0.66 1.32 1 2 C1.66 2 2.32 2 3 2 C2.67 3.32 2.34 4.64 2 6 C2 5.34 2 4.68 2 4 C0.35 4.66 -1.3 5.32 -3 6 C-3.33 4.35 -3.66 2.7 -4 1 C-2.68 0.67 -1.36 0.34 0 0 Z M-6 5 C-5.01 5.33 -4.02 5.66 -3 6 C-3 7.65 -3 9.3 -3 11 C-3.99 11.495 -3.99 11.495 -5 12 C-5.66 12.66 -6.32 13.32 -7 14 C-7.33 11.69 -7.66 9.38 -8 7 C-7.34 7 -6.68 7 -6 7 C-6 6.34 -6 5.68 -6 5 Z " fill="#110D0D" transform="translate(210,317)"/>
<path d="M0 0 C3.76208549 3.76208549 4.10859338 9.36800691 4.1953125 14.5 C4.18226792 16.00012638 4.15879104 17.50019752 4.125 19 C4.11597656 19.77472656 4.10695313 20.54945313 4.09765625 21.34765625 C4.07439388 23.23190843 4.0385364 25.11599832 4 27 C3.34 27.33 2.68 27.66 2 28 C1.15047397 23.63290523 0.92081749 19.56911847 1 15.125 C1.04376439 9.96080219 0.81514399 5.09464997 0 0 Z " fill="#D88E26" transform="translate(371,188)"/>
<path d="M0 0 C-2.97 0.99 -5.94 1.98 -9 3 C-9 3.99 -9 4.98 -9 6 C-8.34 6.33 -7.68 6.66 -7 7 C-7.99 8.485 -7.99 8.485 -9 10 C-9.99 10 -10.98 10 -12 10 C-11.67 8.68 -11.34 7.36 -11 6 C-12.1446875 6.495 -12.1446875 6.495 -13.3125 7 C-16 8 -16 8 -19 8 C-6.88710672 -1.72177668 -6.88710672 -1.72177668 0 0 Z " fill="#E18C19" transform="translate(167,148)"/>
<path d="M0 0 C2.65435305 3.98152957 3.96829018 7.65869087 4.9375 12.3125 C6.34150716 19.71645248 6.34150716 19.71645248 10 26 C10.04080783 27.99958364 10.04254356 30.00045254 10 32 C7.9177444 29.9177444 7.46062537 28.87516135 6.5625 26.1484375 C6.30726563 25.37886719 6.05203125 24.60929687 5.7890625 23.81640625 C5.52867187 23.01074219 5.26828125 22.20507812 5 21.375 C4.60941406 20.20130859 4.60941406 20.20130859 4.2109375 19.00390625 C0 6.1796875 0 6.1796875 0 0 Z " fill="#2E1600" transform="translate(127,290)"/>
<path d="M0 0 C0.66 0.33 1.32 0.66 2 1 C-0.19474144 4.29211217 -1.47085072 5.31087614 -5 7 C-8.55078125 7.51171875 -8.55078125 7.51171875 -12.3125 7.6875 C-13.56675781 7.75324219 -14.82101563 7.81898438 -16.11328125 7.88671875 C-17.06589844 7.92410156 -18.01851562 7.96148437 -19 8 C-19.66 6.35 -20.32 4.7 -21 3 C-19.515 3.99 -19.515 3.99 -18 5 C-12.07389174 5.35699447 -7.03799959 3.39686046 -1.84765625 0.7421875 C-0.93306641 0.37480469 -0.93306641 0.37480469 0 0 Z " fill="#2E1904" transform="translate(147,213)"/>
<path d="M0 0 C5.68323755 1.27850953 10.89059586 3.17638192 16 6 C15.34 6.66 14.68 7.32 14 8 C12.02 7.34 10.04 6.68 8 6 C8 5.34 8 4.68 8 4 C6.02 4 4.04 4 2 4 C2 3.67 2 3.34 2 3 C-2.29 2.67 -6.58 2.34 -11 2 C-7.22909284 -0.51393811 -4.35924917 -0.48517782 0 0 Z " fill="#D0851C" transform="translate(178,145)"/>
<path d="M0 0 C-0.99 3.3 -1.98 6.6 -3 10 C-3.66 9.67 -4.32 9.34 -5 9 C-5.99 9 -6.98 9 -8 9 C-9.33981486 8.6937566 -10.67511887 8.36548445 -12 8 C-10.71064081 6.85157077 -9.41843421 5.70633773 -8.125 4.5625 C-7.04605469 3.60537109 -7.04605469 3.60537109 -5.9453125 2.62890625 C-3.83529848 0.86208728 -2.76919975 0 0 0 Z " fill="#211507" transform="translate(144,133)"/>
<path d="M0 0 C0.66666667 1.33333333 1.33333333 2.66666667 2 4 C2.804375 5.2065625 2.804375 5.2065625 3.625 6.4375 C5.72176762 11.87003428 5.23062823 17.24283595 5 23 C2.76276232 19.64414347 2.20398187 17.11888374 1.375 13.1875 C1.11460938 11.98480469 0.85421875 10.78210938 0.5859375 9.54296875 C0.04603745 6.27837314 -0.11116414 3.2995537 0 0 Z " fill="#F1B65D" transform="translate(0,404)"/>
<path d="M0 0 C1.98 0 3.96 0 6 0 C-1.02581068 6.07168824 -11.9954338 7.37899543 -21 8 C-21 7.34 -21 6.68 -21 6 C-19.865625 5.855625 -18.73125 5.71125 -17.5625 5.5625 C-14.19222799 5.38828522 -14.19222799 5.38828522 -13 4 C-10.81980521 3.60333773 -8.6303537 3.25684763 -6.4375 2.9375 C-5.23996094 2.76089844 -4.04242188 2.58429688 -2.80859375 2.40234375 C-1.88175781 2.26957031 -0.95492188 2.13679688 0 2 C0 1.34 0 0.68 0 0 Z " fill="#2F1901" transform="translate(301,375)"/>
<path d="M0 0 C5.875 0.875 5.875 0.875 7 2 C8.56172745 2.08685603 10.12729344 2.10702219 11.69140625 2.09765625 C12.63564453 2.09443359 13.57988281 2.09121094 14.55273438 2.08789062 C16.04256836 2.07532227 16.04256836 2.07532227 17.5625 2.0625 C18.55958984 2.05798828 19.55667969 2.05347656 20.58398438 2.04882812 C23.05604849 2.03700007 25.52799518 2.02051849 28 2 C22.08315915 5.94456056 15.90837957 5.61354697 9 5 C5.78364352 3.99241363 2.91384791 2.6865683 0 1 C0 0.67 0 0.34 0 0 Z " fill="#381B01" transform="translate(211,338)"/>
<path d="M0 0 C0.33 0 0.66 0 1 0 C0.6619281 5.52184108 -0.65237267 10.50597978 -2.375 15.75 C-2.58406982 16.39976807 -2.79313965 17.04953613 -3.00854492 17.71899414 C-4.21582416 21.28555772 -5.53243876 24.14282383 -8 27 C-8 25.35 -8 23.7 -8 22 C-7.34 22 -6.68 22 -6 22 C-6.061875 21.13375 -6.12375 20.2675 -6.1875 19.375 C-5.96979967 15.45639405 -4.80197537 13.47047109 -3 10 C-1.89826003 6.69478008 -0.93511342 3.35579711 0 0 Z " fill="#F1C072" transform="translate(498,412)"/>
<path d="M0 0 C1.65 0 3.3 0 5 0 C1.64054315 2.88676945 -1.97079178 4.27223675 -6.125 5.625 C-7.11608765 5.95310669 -7.11608765 5.95310669 -8.12719727 6.2878418 C-13.37834234 7.95486185 -18.47746068 8.85706369 -24 9 C-24 8.67 -24 8.34 -24 8 C-22.25014646 7.52029877 -20.50011109 7.04126076 -18.75 6.5625 C-17.77546875 6.29566406 -16.8009375 6.02882813 -15.796875 5.75390625 C-11.96503625 4.72102234 -8.12535743 3.79235826 -4.25 2.9375 C-3.05117188 2.67259766 -3.05117188 2.67259766 -1.828125 2.40234375 C-1.22484375 2.26957031 -0.6215625 2.13679688 0 2 C0 1.34 0 0.68 0 0 Z " fill="#D98B1E" transform="translate(298,353)"/>
<path d="M0 0 C0.33 0.99 0.66 1.98 1 3 C-3.81818182 9.74545455 -3.81818182 9.74545455 -8 11 C-8.99 10.67 -9.98 10.34 -11 10 C-9.38405168 7.95880212 -7.7143618 5.95927063 -6 4 C-5.34 4 -4.68 4 -4 4 C-4 3.34 -4 2.68 -4 2 C-2.68 1.34 -1.36 0.68 0 0 Z " fill="#1F1206" transform="translate(316,256)"/>
<path d="M0 0 C0.33 0 0.66 0 1 0 C1.22237877 2.41611533 1.42832339 4.8317717 1.625 7.25 C1.68945312 7.93191406 1.75390625 8.61382812 1.8203125 9.31640625 C2.11594735 13.1227049 2.17561392 15.77809846 0 19 C-0.66 19 -1.32 19 -2 19 C-2.05451714 16.95863605 -2.09302485 14.91684144 -2.125 12.875 C-2.14820313 11.73804687 -2.17140625 10.60109375 -2.1953125 9.4296875 C-1.99672109 5.94242233 -1.2524801 3.2446138 0 0 Z " fill="#EF9F2F" transform="translate(2,84)"/>
<path d="M0 0 C1.47724832 2.21587247 2.65430356 4.21219077 3.8046875 6.58203125 C4.14113281 7.26716797 4.47757813 7.95230469 4.82421875 8.65820312 C5.5186212 10.08185722 6.21136066 11.50632379 6.90234375 12.93164062 C8.99888257 17.19247712 11.27558633 21.10885312 14 25 C13.01 25 12.02 25 11 25 C6.82450659 20.31452266 4.29545724 15.08864903 3 9 C2.34 9 1.68 9 1 9 C0.67 6.03 0.34 3.06 0 0 Z " fill="#321901" transform="translate(152,304)"/>
<path d="M0 0 C1.32 0 2.64 0 4 0 C4 0.99 4 1.98 4 3 C5.65 3 7.3 3 9 3 C9 4.32 9 5.64 9 7 C8.34 7 7.68 7 7 7 C7.22816406 7.67546875 7.45632813 8.3509375 7.69140625 9.046875 C8.12259766 10.38492188 8.12259766 10.38492188 8.5625 11.75 C8.85253906 12.63171875 9.14257812 13.5134375 9.44140625 14.421875 C10.01697435 17.07834316 9.89248371 18.47031106 9 21 C8.66226562 19.96359375 8.32453125 18.9271875 7.9765625 17.859375 C7.52620263 16.4895304 7.07567286 15.11974166 6.625 13.75 C6.40328125 13.06808594 6.1815625 12.38617188 5.953125 11.68359375 C3.9147594 5.28372221 3.9147594 5.28372221 0 0 Z " fill="#291503" transform="translate(341,231)"/>
<path d="M0 0 C3.97915085 -0.02934144 7.95827337 -0.04691265 11.9375 -0.0625 C13.05447266 -0.07087891 14.17144531 -0.07925781 15.32226562 -0.08789062 C21.63992667 -0.10641749 27.73763227 0.15660583 34 1 C34 1.99 34 2.98 34 4 C33.42459473 3.8570752 32.84918945 3.71415039 32.25634766 3.56689453 C25.22866063 1.97443428 18.55947248 1.76151502 11.375 1.875 C10.27542969 1.88402344 9.17585937 1.89304687 8.04296875 1.90234375 C5.36174242 1.92565876 2.68099393 1.9583796 0 2 C0 1.34 0 0.68 0 0 Z " fill="#D18A22" transform="translate(160,123)"/>
<path d="M0 0 C0.33 0 0.66 0 1 0 C1.32232069 5.9092127 1.071913 11.76170059 -2 17 C-3.94921875 17.62109375 -3.94921875 17.62109375 -6 18 C-6.845625 18.70125 -7.69125 19.4025 -8.5625 20.125 C-9.366875 20.74375 -10.17125 21.3625 -11 22 C-11.99 21.67 -12.98 21.34 -14 21 C-13.113125 20.46375 -12.22625 19.9275 -11.3125 19.375 C-6.79101437 16.36067625 -2.88025793 12.17070932 -1 7 C-0.61250787 4.67504723 -0.27017161 2.34148732 0 0 Z " fill="#D3881F" transform="translate(301,318)"/>
<path d="M0 0 C0.99 0.66 1.98 1.32 3 2 C5.62531524 2.16713569 5.62531524 2.16713569 8 2 C7.09515208 3.15518918 6.1755794 4.29885406 5.25 5.4375 C4.73953125 6.07558594 4.2290625 6.71367187 3.703125 7.37109375 C1.80332371 9.18810554 0.56413092 9.60423197 -2 10 C-2 9.34 -2 8.68 -2 8 C-1.01 8 -0.02 8 1 8 C1 6.68 1 5.36 1 4 C-0.32 4 -1.64 4 -3 4 C-3.66 3.34 -4.32 2.68 -5 2 C-2.6875 0.875 -2.6875 0.875 0 0 Z " fill="#0E0F09" transform="translate(289,329)"/>
<path d="M0 0 C0.66 0.99 1.32 1.98 2 3 C3.96752828 4.06246527 5.96587579 5.07137808 8 6 C8 6.66 8 7.32 8 8 C8.78375 8.2475 9.5675 8.495 10.375 8.75 C13.32317108 10.15389099 13.9024777 11.00675737 15 14 C10.50985376 12.50328459 6.52151236 10.16631659 3 7 C3 6.34 3 5.68 3 5 C2.0409375 4.566875 2.0409375 4.566875 1.0625 4.125 C-1 3 -1 3 -2 1 C-1.34 0.67 -0.68 0.34 0 0 Z " fill="#F4C16E" transform="translate(36,471)"/>
<path d="M0 0 C0.33 0.99 0.66 1.98 1 3 C-0.3984375 5.69921875 -0.3984375 5.69921875 -2.375 8.6875 C-3.02210938 9.68136719 -3.66921875 10.67523438 -4.3359375 11.69921875 C-5.15964844 12.83810547 -5.15964844 12.83810547 -6 14 C-6.33 14 -6.66 14 -7 14 C-7 11.03 -7 8.06 -7 5 C-5.68 4.67 -4.36 4.34 -3 4 C-3 3.34 -3 2.68 -3 2 C-2.01 2 -1.02 2 0 2 C0 1.34 0 0.68 0 0 Z " fill="#F2B053" transform="translate(488,441)"/>
<path d="M0 0 C0.66 0 1.32 0 2 0 C1.95682538 9.17460773 -1.3993851 16.74170894 -5 25 C-6.30457818 21.08626547 -5.37656943 19.2678125 -4.125 15.375 C-3.75632812 14.20710938 -3.38765625 13.03921875 -3.0078125 11.8359375 C-2 9 -2 9 -1 8 C-0.76924918 6.65252916 -0.58846937 5.29622435 -0.4375 3.9375 C-0.293125 2.638125 -0.14875 1.33875 0 0 Z " fill="#DC8C22" transform="translate(349,288)"/>
<path d="M0 0 C0.66 0 1.32 0 2 0 C2 0.66 2 1.32 2 2 C2.5775 2.268125 3.155 2.53625 3.75 2.8125 C6 4 6 4 8.125 5.625 C9.88127926 7.19712122 9.88127926 7.19712122 12 7 C12.33 7.99 12.66 8.98 13 10 C14.2065625 10.433125 14.2065625 10.433125 15.4375 10.875 C18 12 18 12 19.16015625 14.5703125 C19.57587891 15.77300781 19.57587891 15.77300781 20 17 C2.0475825 6.14274751 2.0475825 6.14274751 0 0 Z " fill="#301502" transform="translate(312,209)"/>
<path d="M0 0 C1.53333984 0.00676758 1.53333984 0.00676758 3.09765625 0.01367188 C5.60683194 0.025397 8.1158849 0.04180824 10.625 0.0625 C10.625 0.3925 10.625 0.7225 10.625 1.0625 C4.355 1.0625 -1.915 1.0625 -8.375 1.0625 C-8.375 1.7225 -8.375 2.3825 -8.375 3.0625 C-12.665 3.0625 -16.955 3.0625 -21.375 3.0625 C-14.39039665 -0.42980167 -7.64870859 -0.06415046 0 0 Z " fill="#462904" transform="translate(249.375,147.9375)"/>
<path d="M0 0 C8.4342927 -0.45636453 15.85956596 0.82576642 24 3 C24 3.33 24 3.66 24 4 C17.73 3.67 11.46 3.34 5 3 C5 2.67 5 2.34 5 2 C3.35 1.67 1.7 1.34 0 1 C0 0.67 0 0.34 0 0 Z " fill="#F2B559" transform="translate(400,0)"/>
<path d="M0 0 C1.485 0.99 1.485 0.99 3 2 C2.67 2.33 2.34 2.66 2 3 C1.3113151 10.85100788 3.71512756 15.57269135 8 22 C6.35 21.67 4.7 21.34 3 21 C0.04310783 13.49990012 -1.59634055 7.98170274 0 0 Z " fill="#CD851D" transform="translate(198,313)"/>
<path d="M0 0 C-2.27051827 1.14342647 -4.54919275 2.26439816 -6.83984375 3.3671875 C-8.37318359 4.11355469 -8.37318359 4.11355469 -9.9375 4.875 C-10.95714844 5.36742187 -11.97679687 5.85984375 -13.02734375 6.3671875 C-15.98237715 7.99032017 -18.43695914 9.8192912 -21 12 C-20.6875 10.0625 -20.6875 10.0625 -20 8 C-19.01 7.67 -18.02 7.34 -17 7 C-17 6.34 -17 5.68 -17 5 C-16.34 4.34 -15.68 3.68 -15 3 C-13.68 3 -12.36 3 -11 3 C-11 2.34 -11 1.68 -11 1 C-7.27569643 0.30710631 -3.78916254 -0.11144596 0 0 Z " fill="#321B02" transform="translate(167,146)"/>
<path d="M0 0 C0.33 0 0.66 0 1 0 C1.75741925 9.02140429 2.13534286 17.94706663 2 27 C1.67 27 1.34 27 1 27 C0.90912109 26.04287109 0.90912109 26.04287109 0.81640625 25.06640625 C0.73261719 24.24011719 0.64882812 23.41382813 0.5625 22.5625 C0.48128906 21.73878906 0.40007812 20.91507812 0.31640625 20.06640625 C0.21069185 18.01337975 0.21069185 18.01337975 -1 17 C-1.33111384 11.28341698 -1.21293283 5.60981434 0 0 Z " fill="#E58C1F" transform="translate(124,265)"/>
<path d="M0 0 C0.99 0.33 1.98 0.66 3 1 C2.67 1.70125 2.34 2.4025 2 3.125 C-0.17907674 9.38984562 1.3922985 13.49212809 4.125 19.2421875 C4.41375 19.82226562 4.7025 20.40234375 5 21 C4.01 20.67 3.02 20.34 2 20 C1.3125 17.9375 1.3125 17.9375 1 16 C0.34 16 -0.32 16 -1 16 C-1 15.34 -1 14.68 -1 14 C-1.66 14 -2.32 14 -3 14 C-2.01 9.38 -1.02 4.76 0 0 Z " fill="#DA891A" transform="translate(181,242)"/>
<path d="M0 0 C2.41700987 0.14129287 4.83350429 0.28786487 7.25 0.4375 C8.27287109 0.49647461 8.27287109 0.49647461 9.31640625 0.55664062 C12.64448041 0.76666472 15.80255402 1.01934002 19 2 C19 2.99 19 3.98 19 5 C19.66 5 20.32 5 21 5 C21 5.66 21 6.32 21 7 C20.17242187 6.71382812 19.34484375 6.42765625 18.4921875 6.1328125 C14.73071351 4.91264756 10.94920949 3.87551992 7.125 2.875 C6.43664062 2.69324219 5.74828125 2.51148438 5.0390625 2.32421875 C3.3598292 1.88108774 1.67997794 1.44029956 0 1 C0 0.67 0 0.34 0 0 Z " fill="#2F1B02" transform="translate(173,144)"/>
<path d="M0 0 C0.66 0.66 1.32 1.32 2 2 C2.66 1.67 3.32 1.34 4 1 C3.67 1.99 3.34 2.98 3 4 C2.34 4 1.68 4 1 4 C1.37125 4.763125 1.7425 5.52625 2.125 6.3125 C2.41375 7.199375 2.7025 8.08625 3 9 C2.01 10.485 2.01 10.485 1 12 C0.34 10.68 -0.32 9.36 -1 8 C-1.66 8 -2.32 8 -3 8 C-2.45276317 4.62537285 -1.9451 2.91765 0 0 Z M0 12 C0.33 12.99 0.66 13.98 1 15 C0.34 15 -0.32 15 -1 15 C-0.67 14.01 -0.34 13.02 0 12 Z " fill="#1D1408" transform="translate(339,321)"/>
<path d="M0 0 C0 0.99 0 1.98 0 3 C0.43784158 5.56450069 0.83448204 7.66896407 2 10 C2.99 10.33 3.98 10.66 5 11 C4.95875 11.763125 4.9175 12.52625 4.875 13.3125 C4.77919176 16.22718416 4.77919176 16.22718416 7 19 C6.01 19 5.02 19 4 19 C2.77164675 16.75900431 1.56770505 14.5098622 0.375 12.25 C0.024375 11.61578125 -0.32625 10.9815625 -0.6875 10.328125 C-3.1704549 5.5608516 -3.1704549 5.5608516 -2.2734375 2.609375 C-1 1 -1 1 0 0 Z " fill="#D4861E" transform="translate(303,153)"/>
<path d="M0 0 C3.79939657 1.37105693 6.88690684 3.11560012 10.1875 5.4375 C11.04730469 6.03433594 11.90710938 6.63117188 12.79296875 7.24609375 C15 9 15 9 17 12 C15.02 12.33 13.04 12.66 11 13 C10.855625 12.113125 10.71125 11.22625 10.5625 10.3125 C8.30417243 5.52484554 4.6646339 4.16915074 0 2 C0 1.34 0 0.68 0 0 Z " fill="#351A01" transform="translate(198,129)"/>
<path d="M0 0 C-4.87689027 3.97376244 -10.77453258 6.14600944 -17 7 C-18.34009648 6.69499127 -19.67493775 6.36482726 -21 6 C-18.068542 4.79717903 -15.12902758 3.61545727 -12.1875 2.4375 C-11.35412109 2.09525391 -10.52074219 1.75300781 -9.66210938 1.40039062 C-8.45844727 0.92182617 -8.45844727 0.92182617 -7.23046875 0.43359375 C-6.49207764 0.13509521 -5.75368652 -0.16340332 -4.99291992 -0.47094727 C-3 -1 -3 -1 0 0 Z " fill="#F0BC6E" transform="translate(79,4)"/>
<path d="M0 0 C2.4375 1.875 2.4375 1.875 4 4 C4 4.66 4 5.32 4 6 C3.34 6 2.68 6 2 6 C1.67 4.68 1.34 3.36 1 2 C-2.43230448 2.26393501 -2.43230448 2.26393501 -6 3 C-7.9451 5.91765 -8.45276317 7.62537285 -9 11 C-9.33 11 -9.66 11 -10 11 C-10.36010591 3.67784643 -10.36010591 3.67784643 -8.9375 1 C-5.82090489 -0.60856522 -3.43737531 -0.42213381 0 0 Z " fill="#331300" transform="translate(209,313)"/>
<path d="M0 0 C0.639375 0.33 1.27875 0.66 1.9375 1 C1.9375 1.33 1.9375 1.66 1.9375 2 C-0.3725 2 -2.6825 2 -5.0625 2 C-5.3925 2.66 -5.7225 3.32 -6.0625 4 C-6.0625 3.34 -6.0625 2.68 -6.0625 2 C-6.7225 2 -7.3825 2 -8.0625 2 C-8.0625 1.34 -8.0625 0.68 -8.0625 0 C-9.155625 0.515625 -10.24875 1.03125 -11.375 1.5625 C-15.0625 3 -15.0625 3 -18.0625 2 C-12.12842097 -1.65174094 -6.5672367 -2.14440382 0 0 Z " fill="#2C1802" transform="translate(309.0625,235)"/>
<path d="M0 0 C1.258125 -0.04125 2.51625 -0.0825 3.8125 -0.125 C4.52019531 -0.14820313 5.22789062 -0.17140625 5.95703125 -0.1953125 C8 0 8 0 11 2 C13.73872955 2.45772063 13.73872955 2.45772063 16.6875 2.625 C17.68136719 2.69976562 18.67523438 2.77453125 19.69921875 2.8515625 C20.45847656 2.90054688 21.21773438 2.94953125 22 3 C21.67 4.65 21.34 6.3 21 8 C20.34 6.68 19.68 5.36 19 4 C17.72125 4.061875 16.4425 4.12375 15.125 4.1875 C9.72576189 4.21325153 5.05761265 2.77385997 0 1 C0 0.67 0 0.34 0 0 Z " fill="#402103" transform="translate(266,171)"/>
<path d="M0 0 C4.36574794 0.59018444 7.47717081 2.2026098 11.25 4.4375 C12.30703125 5.05496094 13.3640625 5.67242188 14.453125 6.30859375 C17 8 17 8 18 10 C15.69 9.34 13.38 8.68 11 8 C11 7.34 11 6.68 11 6 C10.2575 6.061875 9.515 6.12375 8.75 6.1875 C5.48220481 5.96469578 4.36754603 5.20426699 2 3 C1.34 2.01 0.68 1.02 0 0 Z " fill="#F6C379" transform="translate(437,9)"/>
<path d="M0 0 C5.61 0 11.22 0 17 0 C17 1.32 17 2.64 17 4 C10.66606918 4.34548714 5.89738492 3.29342747 0 1 C0 0.67 0 0.34 0 0 Z " fill="#EDA131" transform="translate(81,496)"/>
<path d="M0 0 C0.33 0 0.66 0 1 0 C1.05451714 2.04136395 1.09302485 4.08315856 1.125 6.125 C1.14820313 7.26195312 1.17140625 8.39890625 1.1953125 9.5703125 C0.99672109 13.05757767 0.2524801 15.7553862 -1 19 C-1.33 19 -1.66 19 -2 19 C-2.19818283 12.29481414 -2.30844801 6.34823202 0 0 Z " fill="#F0A333" transform="translate(499,397)"/>
<path d="M0 0 C0.48210937 0.42152344 0.96421875 0.84304688 1.4609375 1.27734375 C2.09257812 1.82519531 2.72421875 2.37304688 3.375 2.9375 C4.00148438 3.48277344 4.62796875 4.02804687 5.2734375 4.58984375 C9.20090234 7.79756956 13.13884203 7.21791398 18 7 C20.89086974 6.57549372 20.89086974 6.57549372 23 6 C22.01 7.485 22.01 7.485 21 9 C15.3206609 9.80821364 8.27643981 10.38837026 3.1875 7.3125 C0.80652603 4.79547037 0.19030575 3.42550358 0 0 Z " fill="#2C1400" transform="translate(259,320)"/>
<path d="M0 0 C0 3 0 3 -2 6 C-2.03254757 7.95285422 -2.05813882 9.90700265 -2.00390625 11.859375 C-1.99821154 14.98007851 -2.48753225 17.9251935 -3 21 C-5.97085927 16.54371109 -5.63386104 12.22748929 -5 7 C-3.80149511 4.1962578 -2.16585401 2.16585401 0 0 Z " fill="#321702" transform="translate(290,238)"/>
<path d="M0 0 C0.66 0.33 1.32 0.66 2 1 C2.66 1 3.32 1 4 1 C4.66 1.33 5.32 1.66 6 2 C4.02 4.97 2.04 7.94 0 11 C-1.86870807 7.26258387 -2.41702384 5.96172649 -2 2 C-1.34 1.34 -0.68 0.68 0 0 Z " fill="#1E1505" transform="translate(136,161)"/>
<path d="M0 0 C0.33 0 0.66 0 1 0 C1.47312441 6.78144982 0.31242741 13.61493925 -2 20 C-4.109375 21.890625 -4.109375 21.890625 -6 23 C-5.81824219 22.42894531 -5.63648438 21.85789062 -5.44921875 21.26953125 C-3.27440363 14.25435838 -1.58448337 7.16950633 0 0 Z " fill="#371C01" transform="translate(351,288)"/>
<path d="M0 0 C3.42771135 3.9173844 8 9.52151811 8 15 C7.01 15 6.02 15 5 15 C4.01 12.36 3.02 9.72 2 7 C1.01 7 0.02 7 -1 7 C-0.67 4.69 -0.34 2.38 0 0 Z " fill="#F2B563" transform="translate(483,48)"/>
<path d="M0 0 C2 1 4 2 6 3 C6 3.66 6 4.32 6 5 C6.5775 5.226875 7.155 5.45375 7.75 5.6875 C10.5663661 7.33038023 12.08077114 9.39533227 14 12 C13.34 12 12.68 12 12 12 C11.67 12.66 11.34 13.32 11 14 C10.79375 13.236875 10.5875 12.47375 10.375 11.6875 C9.20366363 8.73591527 9.20366363 8.73591527 6.0625 7.5625 C2.30031125 5.64301595 1.53774827 3.84437067 0 0 Z " fill="#F1BC6C" transform="translate(455,19)"/>
<path d="M0 0 C2.475 0.495 2.475 0.495 5 1 C5 1.66 5 2.32 5 3 C5.99 2.67 6.98 2.34 8 2 C8 2.66 8 3.32 8 4 C8.66 4.33 9.32 4.66 10 5 C10.33 5.99 10.66 6.98 11 8 C12.62652316 9.70586575 14.29006566 11.3777546 16 13 C12.88103324 11.59368017 10.54597146 9.90245104 8 7.625 C7.3090625 7.00753906 6.618125 6.39007813 5.90625 5.75390625 C3.87974006 3.889351 1.90725053 1.9867193 0 0 Z " fill="#DD8C19" transform="translate(170,334)"/>
<path d="M0 0 C3.80804928 1.41501285 7.21309334 3.14544808 10.6875 5.25 C11.64011719 5.81203125 12.59273438 6.3740625 13.57421875 6.953125 C16.48661269 9.41060394 17.11765373 11.34677685 18 15 C16.46270661 13.46270661 14.94493567 11.93805263 13.5 10.3125 C11.95590371 8.6707477 11.95590371 8.6707477 9 9 C7.31183067 7.35511706 5.64646685 5.68662458 4 4 C1.83379456 2.70480005 1.83379456 2.70480005 0 2 C0 1.34 0 0.68 0 0 Z " fill="#CF861F" transform="translate(328,224)"/>
<path d="M0 0 C2.33333333 0 4.66666667 0 7 0 C8.03039555 4.53374042 8.17766075 5.64467851 6 10 C4.02 6.7 2.04 3.4 0 0 Z " fill="#201508" transform="translate(358,162)"/>
<path d="M0 0 C1.87019528 1.58516552 2.8872 2.58558262 3.5390625 4.98046875 C3.73820821 10.09489278 2.92139876 12.67013947 -0.5 16.5625 C-1.64601933 17.72898396 -2.80626426 18.88239537 -4 20 C-4.33 19.01 -4.66 18.02 -5 17 C-4.01 16.154375 -3.02 15.30875 -2 14.4375 C0.61630002 11.83351198 0.97070183 11.2427563 1.4375 7.375 C1.10655437 4.82199084 0.78300488 2.44689025 0 0 Z " fill="#301601" transform="translate(273,284)"/>
<path d="M0 0 C0 3 0 3 -2 6 C-2.66 6 -3.32 6 -4 6 C-4.226875 6.5775 -4.45375 7.155 -4.6875 7.75 C-6.33038023 10.5663661 -8.39533227 12.08077114 -11 14 C-10.6875 12.0625 -10.6875 12.0625 -10 10 C-9.01 9.67 -8.02 9.34 -7 9 C-7 7.68 -7 6.36 -7 5 C-5.68 5 -4.36 5 -3 5 C-3 4.01 -3 3.02 -3 2 C-2.01 1.34 -1.02 0.68 0 0 Z " fill="#F2BE73" transform="translate(480,455)"/>
<path d="M0 0 C2.5 2.3125 2.5 2.3125 5 5 C5 5.99 5 6.98 5 8 C3.02 8 1.04 8 -1 8 C-1.33 6.68 -1.66 5.36 -2 4 C-1.34 4 -0.68 4 0 4 C0 2.68 0 1.36 0 0 Z " fill="#E58B0F" transform="translate(227,300)"/>
<path d="M0 0 C5.61 0 11.22 0 17 0 C17 0.66 17 1.32 17 2 C15.93072266 1.93039063 15.93072266 1.93039063 14.83984375 1.859375 C8.21745844 1.60981001 4.4231651 2.14352704 -1 6 C-1.33 5.01 -1.66 4.02 -2 3 C-1.34 3 -0.68 3 0 3 C0 2.01 0 1.02 0 0 Z " fill="#DA8B1C" transform="translate(187,233)"/>
<path d="M0 0 C0.66 0.33 1.32 0.66 2 1 C1.360625 1.763125 0.72125 2.52625 0.0625 3.3125 C-2.14232781 5.88246713 -2.14232781 5.88246713 -3 9 C-5.31 9.33 -7.62 9.66 -10 10 C-3.84965831 2.51708428 -3.84965831 2.51708428 0 0 Z " fill="#2E1603" transform="translate(293,133)"/>
<path d="M0 0 C9.59453303 1.74259681 9.59453303 1.74259681 13 5 C8.58547846 6.05948517 6.65384171 6.3447529 2.5625 4.1875 C1.716875 3.465625 0.87125 2.74375 0 2 C0 1.34 0 0.68 0 0 Z " fill="#F1AF52" transform="translate(424,4)"/>
<path d="M0 0 C1.48285242 0.95262034 2.96118201 1.91228405 4.4375 2.875 C5.67306641 3.67550781 5.67306641 3.67550781 6.93359375 4.4921875 C9 6 9 6 10 8 C7.69 7.67 5.38 7.34 3 7 C3.33 6.01 3.66 5.02 4 4 C1.52733235 4.34444881 1.52733235 4.34444881 -1 5 C-1.33 5.66 -1.66 6.32 -2 7 C-2.33 6.01 -2.66 5.02 -3 4 C-2.34 4 -1.68 4 -1 4 C-0.67 2.68 -0.34 1.36 0 0 Z " fill="#EA8E18" transform="translate(163,358)"/>
<path d="M0 0 C4.21912747 0.4794463 6.79663178 1.16625119 10 4 C9.67 5.98 9.34 7.96 9 10 C8.443125 9.278125 7.88625 8.55625 7.3125 7.8125 C5.02090666 5.02542701 2.58540143 2.51358472 0 0 Z " fill="#E18E18" transform="translate(309,235)"/>
<path d="M0 0 C0 1.32 0 2.64 0 4 C-0.99 4.33 -1.98 4.66 -3 5 C-3.66 5.66 -4.32 6.32 -5 7 C-7.65537372 7.56520003 -10.29144713 7.73788198 -13 8 C-11.67306301 6.99152789 -10.33743723 5.99450461 -9 5 C-8.42121094 4.566875 -7.84242188 4.13375 -7.24609375 3.6875 C-6.62863281 3.23375 -6.01117188 2.78 -5.375 2.3125 C-4.78460938 1.87550781 -4.19421875 1.43851563 -3.5859375 0.98828125 C-2 0 -2 0 0 0 Z " fill="#2A1802" transform="translate(162,205)"/>
<path d="M0 0 C2.25597827 2.25597827 2.96574192 4.04603867 4.125 7 C4.47820312 7.886875 4.83140625 8.77375 5.1953125 9.6875 C6 12 6 12 6 14 C4.02 14 2.04 14 0 14 C0.33 13.34 0.66 12.68 1 12 C1.18794703 7.86516531 0.7733536 4.06010642 0 0 Z " fill="#2F1A04" transform="translate(387,169)"/>
<path d="M0 0 C1.32 0 2.64 0 4 0 C5.703125 2.1875 5.703125 2.1875 7.25 5 C8.03117187 6.3921875 8.03117187 6.3921875 8.828125 7.8125 C9.21484375 8.534375 9.6015625 9.25625 10 10 C6.60085025 8.86695008 5.94745549 7.87481525 4 5 C2.68 5.33 1.36 5.66 0 6 C0 4.02 0 2.04 0 0 Z " fill="#E48812" transform="translate(282,177)"/>
<path d="M0 0 C0.6875 1.6875 0.6875 1.6875 1 4 C-0.4375 6.75 -0.4375 6.75 -2 9 C-4.475 8.01 -4.475 8.01 -7 7 C-4.66666667 4.66666667 -2.33333333 2.33333333 0 0 Z " fill="#E18913" transform="translate(212,260)"/>
<path d="M0 0 C0.66 0.33 1.32 0.66 2 1 C0.90033225 2.29549899 -0.20491801 3.58626071 -1.3125 4.875 C-1.92738281 5.59429687 -2.54226562 6.31359375 -3.17578125 7.0546875 C-5 9 -5 9 -8 11 C-8 9.35 -8 7.7 -8 6 C-7.34 6 -6.68 6 -6 6 C-5.67 5.01 -5.34 4.02 -5 3 C-3.35 2.67 -1.7 2.34 0 2 C0 1.34 0 0.68 0 0 Z " fill="#362002" transform="translate(193,202)"/>
<path d="M0 0 C0.33 0.99 0.66 1.98 1 3 C-1.3125 4.5625 -1.3125 4.5625 -4 6 C-7.39914975 4.86695008 -8.05254451 3.87481525 -10 1 C-3.375 0.875 -3.375 0.875 0 2 C0 1.34 0 0.68 0 0 Z " fill="#191105" transform="translate(314,369)"/>
<path d="M0 0 C3.17462943 2.40242227 5.85751741 4.61713276 8 8 C8 8.66 8 9.32 8 10 C9.32 10.33 10.64 10.66 12 11 C10.02 11 8.04 11 6 11 C5.67 10.34 5.34 9.68 5 9 C4.01 8.67 3.02 8.34 2 8 C1.855625 7.236875 1.71125 6.47375 1.5625 5.6875 C1.0367406 2.91827092 1.0367406 2.91827092 0 0 Z " fill="#2E1702" transform="translate(215,141)"/>
<path d="M0 0 C0 0.66 0 1.32 0 2 C1.65 2.33 3.3 2.66 5 3 C5 3.66 5 4.32 5 5 C-4.59453303 2.10933941 -4.59453303 2.10933941 -8 -1 C-4.59745511 -2.2151946 -3.06748874 -1.86240388 0 0 Z " fill="#271404" transform="translate(192,372)"/>
<path d="M0 0 C0 3.59857954 -0.95830515 5.09451118 -3 8 C-3.66 8 -4.32 8 -5 8 C-5.33 8.99 -5.66 9.98 -6 11 C-6.99 11 -7.98 11 -9 11 C-7.59155282 7.78475695 -5.89655214 5.67816132 -3.375 3.25 C-2.74335938 2.63640625 -2.11171875 2.0228125 -1.4609375 1.390625 C-0.73777344 0.70226562 -0.73777344 0.70226562 0 0 Z " fill="#D4871B" transform="translate(274,298)"/>
<path d="M0 0 C0.66 1.32 1.32 2.64 2 4 C1.01 4.33 0.02 4.66 -1 5 C-1 5.66 -1 6.32 -1 7 C-1.66 7 -2.32 7 -3 7 C-3.33 8.65 -3.66 10.3 -4 12 C-4.99 12.33 -5.98 12.66 -7 13 C-5.35821735 8.22390502 -2.73453298 4.20617096 0 0 Z " fill="#2E1702" transform="translate(122,152)"/>
<path d="M0 0 C-1.55851755 0.82011312 -3.12201716 1.63076213 -4.6875 2.4375 C-5.55761719 2.88996094 -6.42773438 3.34242188 -7.32421875 3.80859375 C-9.90998264 4.95991928 -12.21356528 5.56320753 -15 6 C-14.67 5.01 -14.34 4.02 -14 3 C-12.35 3 -10.7 3 -9 3 C-9 2.34 -9 1.68 -9 1 C-2.25 -1.125 -2.25 -1.125 0 0 Z " fill="#F2BD70" transform="translate(445,488)"/>
<path d="M0 0 C0.33 0.66 0.66 1.32 1 2 C3.02463255 2.65213292 3.02463255 2.65213292 5 3 C3.37660195 4.70884005 1.70680947 6.37446717 0 8 C-0.66 8 -1.32 8 -2 8 C-1.125 1.125 -1.125 1.125 0 0 Z " fill="#F1A842" transform="translate(463,468)"/>
<path d="M0 0 C0 0.66 0 1.32 0 2 C-6.52940894 4.95671348 -11.87399867 5.35368021 -19 5 C-19 4.67 -19 4.34 -19 4 C-16.20895657 3.3306277 -13.41722977 2.66438908 -10.625 2 C-9.43390625 1.71382813 -9.43390625 1.71382813 -8.21875 1.421875 C-7.45820313 1.24140625 -6.69765625 1.0609375 -5.9140625 0.875 C-4.8614624 0.62363281 -4.8614624 0.62363281 -3.78759766 0.3671875 C-2 0 -2 0 0 0 Z " fill="#351B01" transform="translate(293,358)"/>
<path d="M0 0 C-2.36797991 2.61724095 -4.89600354 4.32861729 -8 6 C-8.66 6 -9.32 6 -10 6 C-10 5.34 -10 4.68 -10 4 C-9.34 4 -8.68 4 -8 4 C-8.33 3.01 -8.66 2.02 -9 1 C-5.64919071 -1.10976881 -3.77897651 -1.0497157 0 0 Z " fill="#DE8B17" transform="translate(314,347)"/>
<path d="M0 0 C0.99 0.495 0.99 0.495 2 1 C2.33333333 2.33333333 2.66666667 3.66666667 3 5 C3.66 5.33 4.32 5.66 5 6 C5.4140625 8.06640625 5.4140625 8.06640625 5.625 10.5625 C5.69976562 11.38878906 5.77453125 12.21507812 5.8515625 13.06640625 C5.90054688 13.70449219 5.94953125 14.34257812 6 15 C3.08691178 13.54345589 2.94547684 11.64612352 1.875 8.625 C1.52179688 7.64789063 1.16859375 6.67078125 0.8046875 5.6640625 C0 3 0 3 0 0 Z " fill="#D9891E" transform="translate(151,298)"/>
<path d="M0 0 C1.8125 2 1.8125 2 3 4 C-2.41538462 7.07692308 -2.41538462 7.07692308 -5.375 6.6875 C-5.91125 6.460625 -6.4475 6.23375 -7 6 C-5.68 5.34 -4.36 4.68 -3 4 C-4.32 3.01 -5.64 2.02 -7 1 C-4.4254716 -0.2872642 -2.85291355 -0.34791629 0 0 Z " fill="#1E1205" transform="translate(381,232)"/>
<path d="M0 0 C1.875 0.1875 1.875 0.1875 4 1 C5.25 3.5625 5.25 3.5625 6 6 C6.66 6 7.32 6 8 6 C8.33 7.65 8.66 9.3 9 11 C7 9.625 7 9.625 5 8 C5 7.34 5 6.68 5 6 C4.34 6 3.68 6 3 6 C2.01 4.02 1.02 2.04 0 0 Z " fill="#F0BE78" transform="translate(19,455)"/>
<path d="M0 0 C5.50009456 0.58929585 10.69126126 1.41669195 16 3 C16.33 3.66 16.66 4.32 17 5 C10.95198929 4.45018084 5.69398894 3.09570426 0 1 C0 0.67 0 0.34 0 0 Z " fill="#3B1E02" transform="translate(197,377)"/>
<path d="M0 0 C0.66 0.33 1.32 0.66 2 1 C0.92319498 2.13125022 -0.16175635 3.25474919 -1.25 4.375 C-1.85328125 5.00148438 -2.4565625 5.62796875 -3.078125 6.2734375 C-4.9700588 7.97310161 -6.68201309 8.98459866 -9 10 C-8.67 9.01 -8.34 8.02 -8 7 C-7.34 7 -6.68 7 -6 7 C-6.33 6.01 -6.66 5.02 -7 4 C-4.83450189 1.83450189 -3.8751666 1.64923117 -1 1 C-0.67 0.67 -0.34 0.34 0 0 Z " fill="#2F1703" transform="translate(340,352)"/>
<path d="M0 0 C-3.3 2.31 -6.6 4.62 -10 7 C-10.33 6.34 -10.66 5.68 -11 5 C-10.34 5 -9.68 5 -9 5 C-8.938125 4.38125 -8.87625 3.7625 -8.8125 3.125 C-8 1 -8 1 -5.625 -0.3125 C-3 -1 -3 -1 0 0 Z " fill="#D98C1E" transform="translate(163,204)"/>
<path d="M0 0 C0.66 0 1.32 0 2 0 C0.58330822 5.19453651 -2.92108191 8.66182883 -7 12 C-7.66 12 -8.32 12 -9 12 C-8 9 -8 9 -5.0625 6.5625 C-2.38705307 4.32386073 -1.17591989 3.1749837 0 0 Z " fill="#301602" transform="translate(393,223)"/>
<path d="M0 0 C1.32 0.33 2.64 0.66 4 1 C4 3.31 4 5.62 4 8 C2.02 6.68 0.04 5.36 -2 4 C-1.34 2.68 -0.68 1.36 0 0 Z " fill="#271805" transform="translate(114,229)"/>
<path d="M0 0 C0 3 0 3 -1 5 C-0.34 5.33 0.32 5.66 1 6 C-2.63 6.66 -6.26 7.32 -10 8 C-7.76718268 5.76718268 -5.85658836 4.08856169 -3.3125 2.3125 C-2.68988281 1.87550781 -2.06726563 1.43851563 -1.42578125 0.98828125 C-0.95527344 0.66214844 -0.48476562 0.33601562 0 0 Z " fill="#DC8A14" transform="translate(173,222)"/>
<path d="M0 0 C0.66 0.33 1.32 0.66 2 1 C1.74337755 2.44010481 1.46909179 3.8770687 1.1875 5.3125 C1.03667969 6.11300781 0.88585937 6.91351563 0.73046875 7.73828125 C-0.07572236 10.23445587 -1.02052002 11.32422106 -3 13 C-2.45144652 8.428721 -1.58255197 4.32564205 0 0 Z " fill="#D9891B" transform="translate(130,181)"/>
<path d="M0 0 C1.12894876 0.93274109 2.25300876 1.87140122 3.375 2.8125 C4.00148438 3.33457031 4.62796875 3.85664063 5.2734375 4.39453125 C7 6 7 6 9 9 C6.07120629 8.37240135 3.63904371 7.41377341 1 6 C1.33 5.01 1.66 4.02 2 3 C1.34 3 0.68 3 0 3 C0 2.01 0 1.02 0 0 Z " fill="#291502" transform="translate(365,139)"/>
<path d="M0 0 C0.66 0.33 1.32 0.66 2 1 C0.8433323 4.47000311 0.14273284 4.84701459 -2.875 6.6875 C-3.57367188 7.12449219 -4.27234375 7.56148437 -4.9921875 8.01171875 C-7 9 -7 9 -10 9 C-8.71034824 7.62437146 -7.37310707 6.29233607 -6 5 C-5.34 5 -4.68 5 -4 5 C-4 4.34 -4 3.68 -4 3 C-2 1.375 -2 1.375 0 0 Z " fill="#F2C476" transform="translate(43,19)"/>
<path d="M0 0 C0.33 0 0.66 0 1 0 C1.28730852 4.88424492 1.32472595 8.21669117 -2 12 C-4.6875 12.3125 -4.6875 12.3125 -7 12 C-6.21625 11.13375 -5.4325 10.2675 -4.625 9.375 C-2.16613272 6.44943553 -0.97549896 3.72463238 0 0 Z " fill="#2A1603" transform="translate(242,314)"/>
<path d="M0 0 C0.99 0 1.98 0 3 0 C3.33 1.65 3.66 3.3 4 5 C4.99 5 5.98 5 7 5 C7.33 4.34 7.66 3.68 8 3 C8 4.98 8 6.96 8 9 C7.01 9.495 7.01 9.495 6 10 C4.99723227 8.52270825 3.99785546 7.04311423 3 5.5625 C2.443125 4.73878906 1.88625 3.91507812 1.3125 3.06640625 C0 1 0 1 0 0 Z " fill="#DC8A18" transform="translate(160,320)"/>
<path d="M0 0 C0.66 0 1.32 0 2 0 C2.28875 1.2375 2.5775 2.475 2.875 3.75 C3.61334794 6.72448742 4.44474933 9.333856 6 12 C4.68 11.34 3.36 10.68 2 10 C2 9.34 2 8.68 2 8 C1.34 8 0.68 8 0 8 C0 5.36 0 2.72 0 0 Z " fill="#E58F1B" transform="translate(221,288)"/>
<path d="M0 0 C1.32 0 2.64 0 4 0 C4 0.66 4 1.32 4 2 C4.99 2.33 5.98 2.66 7 3 C7.625 6.375 7.625 6.375 8 10 C7.34 10.66 6.68 11.32 6 12 C5.62875 10.14375 5.62875 10.14375 5.25 8.25 C4.3289242 4.48560327 3.08652634 2.46922107 0 0 Z " fill="#CB8318" transform="translate(270,281)"/>
<path d="M0 0 C2.31 0 4.62 0 7 0 C7 0.66 7 1.32 7 2 C7.99 2 8.98 2 10 2 C10.66 3.65 11.32 5.3 12 7 C8.04 5.02 4.08 3.04 0 1 C0 0.67 0 0.34 0 0 Z " fill="#331E04" transform="translate(337,147)"/>
<path d="M0 0 C1.9375 0.3125 1.9375 0.3125 4 1 C4.33 1.99 4.66 2.98 5 4 C7.64 4.33 10.28 4.66 13 5 C9.86501708 6.85776765 7.62528568 7.20140476 4 7 C2.02 3.535 2.02 3.535 0 0 Z " fill="#D28921" transform="translate(219,144)"/>
<path d="M0 0 C0.66 0 1.32 0 2 0 C2 0.66 2 1.32 2 2 C2.66 2 3.32 2 4 2 C5.2890625 3.53125 5.2890625 3.53125 6.625 5.5 C7.07101562 6.1496875 7.51703125 6.799375 7.9765625 7.46875 C8.48316406 8.22671875 8.48316406 8.22671875 9 9 C8.67 9.66 8.34 10.32 8 11 C5.5 9.75 5.5 9.75 3 8 C3 6.68 3 5.36 3 4 C2.34 4 1.68 4 1 4 C0.67 2.68 0.34 1.36 0 0 Z " fill="#F4C177" transform="translate(474,37)"/>
<path d="M0 0 C1.65 0 3.3 0 5 0 C0.88881081 3.52387645 -2.46508112 6 -8 6 C-8 5.34 -8 4.68 -8 4 C-4.535 3.505 -4.535 3.505 -1 3 C-0.67 2.01 -0.34 1.02 0 0 Z " fill="#DB8C1C" transform="translate(146,211)"/>
<path d="M0 0 C0.33 0.99 0.66 1.98 1 3 C-0.0625 5.125 -0.0625 5.125 -2 7 C-5.1875 7.75 -5.1875 7.75 -8 8 C-5.33333333 5.33333333 -2.66666667 2.66666667 0 0 Z " fill="#281504" transform="translate(170,197)"/>
<path d="M0 0 C0.99 0 1.98 0 3 0 C1.43358249 4.30764815 -0.68336156 8.06171464 -3 12 C-4.21386936 8.35839192 -3.6674695 7.66834531 -2.0625 4.3125 C-1.49208984 3.10013672 -1.49208984 3.10013672 -0.91015625 1.86328125 C-0.60980469 1.24839844 -0.30945313 0.63351563 0 0 Z " fill="#DA8C1F" transform="translate(117,155)"/>
<path d="M0 0 C-1.28062485 1.7074998 -2.61767557 3.37373596 -4 5 C-4.66 5 -5.32 5 -6 5 C-6.33 3.35 -6.66 1.7 -7 0 C-3.98968256 -0.93423645 -3.13349732 -1.04449911 0 0 Z " fill="#1E1005" transform="translate(347,347)"/>
<path d="M0 0 C1.32 0.33 2.64 0.66 4 1 C4.33 2.65 4.66 4.3 5 6 C5.66 6 6.32 6 7 6 C7.33 7.65 7.66 9.3 8 11 C4.31993178 7.61831569 2.0214155 4.57478244 0 0 Z " fill="#2E1801" transform="translate(144,335)"/>
<path d="M0 0 C3.71599191 -0.20086443 4.77208445 -0.1519437 8 2 C9.9896995 2.39013716 11.99019869 2.73202649 14 3 C14 3.33 14 3.66 14 4 C4.41885965 4.56359649 4.41885965 4.56359649 0 1 C0 0.67 0 0.34 0 0 Z " fill="#CD821A" transform="translate(263,324)"/>
<path d="M0 0 C4.95476478 4.79493366 4.95476478 4.79493366 5.09765625 8.6015625 C5.08605469 9.59929687 5.07445312 10.59703125 5.0625 11.625 C5.05347656 12.62789062 5.04445313 13.63078125 5.03515625 14.6640625 C5.02355469 15.43492187 5.01195312 16.20578125 5 17 C4.67 17 4.34 17 4 17 C3.96261719 16.41992188 3.92523438 15.83984375 3.88671875 15.2421875 C3.45809099 10.14908122 2.5386772 6.52546806 0 2 C0 1.34 0 0.68 0 0 Z " fill="#371901" transform="translate(313,239)"/>
<path d="M0 0 C0 3 0 3 -1.5 4.6875 C-1.995 5.120625 -2.49 5.55375 -3 6 C-3 5.34 -3 4.68 -3 4 C-3.598125 4.350625 -4.19625 4.70125 -4.8125 5.0625 C-7 6 -7 6 -10 5 C-6.7 3.35 -3.4 1.7 0 0 Z " fill="#321904" transform="translate(305,127)"/>
<path d="M0 0 C5.94 2.475 5.94 2.475 12 5 C12 5.33 12 5.66 12 6 C9.69 6 7.38 6 5 6 C5 5.34 5 4.68 5 4 C3.68 4 2.36 4 1 4 C0.67 2.68 0.34 1.36 0 0 Z " fill="#DE8B21" transform="translate(208,337)"/>
<path d="M0 0 C2.8125 -0.25 2.8125 -0.25 6 0 C7.875 2 7.875 2 9 4 C8.236875 3.79375 7.47375 3.5875 6.6875 3.375 C3.78114056 2.66608797 3.78114056 2.66608797 1 5 C0.67 3.35 0.34 1.7 0 0 Z " fill="#F39410" transform="translate(228,307)"/>
<path d="M0 0 C2.64 1.98 5.28 3.96 8 6 C6.02 6.99 6.02 6.99 4 8 C1.10067643 5.60490662 0.49831724 3.68754757 0 0 Z " fill="#E58E1C" transform="translate(316,214)"/>
<path d="M0 0 C1.98 0 3.96 0 6 0 C4.02 2.31 2.04 4.62 0 7 C-1.04449911 3.86650268 -0.93423645 3.01031744 0 0 Z " fill="#E68F17" transform="translate(130,137)"/>
<path d="M0 0 C2.31 0 4.62 0 7 0 C6.67 0.99 6.34 1.98 6 3 C7.32 3.33 8.64 3.66 10 4 C10 4.66 10 5.32 10 6 C6.40992874 4.66654496 3.20429093 3.1056769 0 1 C0 0.67 0 0.34 0 0 Z " fill="#321A02" transform="translate(172,364)"/>
<path d="M0 0 C2.31 1.98 4.62 3.96 7 6 C6.01 6.495 6.01 6.495 5 7 C2.375 6.0625 2.375 6.0625 0 5 C0 3.35 0 1.7 0 0 Z " fill="#D48C1D" transform="translate(156,351)"/>
<path d="M0 0 C0 3 0 3 -1.125 4.625 C-3.64613093 6.47382935 -5.93350175 6.65927797 -9 7 C-6.19195732 4.03595495 -3.81684226 1.55500981 0 0 Z " fill="#251403" transform="translate(326,339)"/>
<path d="M0 0 C0.66 0.33 1.32 0.66 2 1 C0.71372289 2.17260611 -0.57919783 3.3379283 -1.875 4.5 C-2.59429687 5.1496875 -3.31359375 5.799375 -4.0546875 6.46875 C-6 8 -6 8 -8 8 C-8 7.34 -8 6.68 -8 6 C-7.01 6 -6.02 6 -5 6 C-5 5.34 -5 4.68 -5 4 C-4.34 4 -3.68 4 -3 4 C-3 3.01 -3 2.02 -3 1 C-2.01 0.67 -1.02 0.34 0 0 Z " fill="#2F1700" transform="translate(295,331)"/>
<path d="M0 0 C0.66 0.33 1.32 0.66 2 1 C1.01 1.804375 1.01 1.804375 0 2.625 C-2.31024799 4.89958592 -2.31024799 4.89958592 -2.25 8.25 C-2.1675 9.1575 -2.085 10.065 -2 11 C-2.66 10.67 -3.32 10.34 -4 10 C-4.59355614 7.35139573 -4.74209269 4.70802678 -5 2 C-2.625 0.9375 -2.625 0.9375 0 0 Z " fill="#2C1605" transform="translate(261,309)"/>
<path d="M0 0 C0.33 0.99 0.66 1.98 1 3 C-0.65 4.65 -2.3 6.3 -4 8 C-4 6.02 -4 4.04 -4 2 C-2.68 1.34 -1.36 0.68 0 0 Z " fill="#321604" transform="translate(316,256)"/>
<path d="M0 0 C0.33 0 0.66 0 1 0 C1.33 4.29 1.66 8.58 2 13 C1.01 13.495 1.01 13.495 0 14 C-1.13016601 8.97703996 -0.77916092 5.02125926 0 0 Z " fill="#EA8E1C" transform="translate(373,202)"/>
<path d="M0 0 C0.99 0.33 1.98 0.66 3 1 C0.69 3.97 -1.62 6.94 -4 10 C-4.33 8.68 -4.66 7.36 -5 6 C-4.34 6 -3.68 6 -3 6 C-2.690625 5.38125 -2.38125 4.7625 -2.0625 4.125 C-1.375 2.75 -0.6875 1.375 0 0 Z " fill="#2B1401" transform="translate(204,188)"/>
<path d="M0 0 C0.66 0.33 1.32 0.66 2 1 C-0.31 3.64 -2.62 6.28 -5 9 C-5.66 7.68 -6.32 6.36 -7 5 C-5.68 5 -4.36 5 -3 5 C-3.33 4.01 -3.66 3.02 -4 2 C-2.125 0.9375 -2.125 0.9375 0 0 Z " fill="#E09123" transform="translate(127,144)"/>
<path d="M0 0 C0.66 0.99 1.32 1.98 2 3 C3.96752828 4.06246527 5.96587579 5.07137808 8 6 C7.67 6.66 7.34 7.32 7 8 C5.68 7.67 4.36 7.34 3 7 C3 6.34 3 5.68 3 5 C2.0409375 4.566875 2.0409375 4.566875 1.0625 4.125 C-1 3 -1 3 -2 1 C-1.34 0.67 -0.68 0.34 0 0 Z " fill="#F0B663" transform="translate(36,471)"/>
<path d="M0 0 C0.66 0.33 1.32 0.66 2 1 C2.625 4.0625 2.625 4.0625 3 7 C1.68 6.67 0.36 6.34 -1 6 C-1.042721 4.33388095 -1.04063832 2.66617115 -1 1 C-0.67 0.67 -0.34 0.34 0 0 Z " fill="#ECA43D" transform="translate(18,448)"/>
<path d="M0 0 C1.14926266 0.95421808 2.29430541 1.91352045 3.4375 2.875 C4.07558594 3.40867187 4.71367187 3.94234375 5.37109375 4.4921875 C7 6 7 6 8 8 C6.35 8 4.7 8 3 8 C0 2.25 0 2.25 0 0 Z " fill="#3E1E04" transform="translate(168,332)"/>
<path d="M0 0 C0 0.66 0 1.32 0 2 C-1.47695491 3.28430862 -2.95806138 4.56580708 -4.4921875 5.78125 C-6.13813095 7.06784671 -6.13813095 7.06784671 -8 9 C-8.66 8.34 -9.32 7.68 -10 7 C-8.71372289 5.82739389 -7.42080217 4.6620717 -6.125 3.5 C-5.04605469 2.52546875 -5.04605469 2.52546875 -3.9453125 1.53125 C-2 0 -2 0 0 0 Z " fill="#D3861E" transform="translate(186,213)"/>
<path d="M0 0 C0 2.83967231 -0.40267181 5.23735711 -1 8 C-2.32 8.33 -3.64 8.66 -5 9 C-5 4.61031544 -2.87194899 3.23094261 0 0 Z " fill="#DC881F" transform="translate(143,161)"/>
<path d="M0 0 C4.43090471 1.20842856 6.98112756 2.51668565 10 6 C8.68 6 7.36 6 6 6 C6 5.34 6 4.68 6 4 C5.071875 3.7834375 5.071875 3.7834375 4.125 3.5625 C2 3 2 3 0 2 C0 1.34 0 0.68 0 0 Z " fill="#351B02" transform="translate(349,129)"/>
<path d="M0 0 C0 3.65351863 -0.88942301 5.06026776 -3 8 C-5.1875 9.3125 -5.1875 9.3125 -7 10 C-6 8 -5 6 -4 4 C-3.34 4 -2.68 4 -2 4 C-1.34 2.68 -0.68 1.36 0 0 Z " fill="#F5CE8B" transform="translate(26,35)"/>
<path d="M0 0 C1.32 0 2.64 0 4 0 C4 0.66 4 1.32 4 2 C6.64 1.67 9.28 1.34 12 1 C11.67 1.99 11.34 2.98 11 4 C9.35232753 3.71890887 7.70686855 3.42481474 6.0625 3.125 C4.68771484 2.88136719 4.68771484 2.88136719 3.28515625 2.6328125 C2.53105469 2.42398437 1.77695312 2.21515625 1 2 C0.67 1.34 0.34 0.68 0 0 Z " fill="#221303" transform="translate(256,337)"/>
<path d="M0 0 C1.65 0.33 3.3 0.66 5 1 C4.67 1.99 4.34 2.98 4 4 C2.68 4 1.36 4 0 4 C-0.99 4.66 -1.98 5.32 -3 6 C-2.67 4.68 -2.34 3.36 -2 2 C-1.34 2 -0.68 2 0 2 C0 1.34 0 0.68 0 0 Z " fill="#2E1702" transform="translate(248,331)"/>
<path d="M0 0 C0.66 0 1.32 0 2 0 C1.5206753 4.31392226 0.2542015 6.16569547 -3 9 C-3 7.68 -3 6.36 -3 5 C-2.34 5 -1.68 5 -1 5 C-0.67 3.35 -0.34 1.7 0 0 Z " fill="#DA911E" transform="translate(285,316)"/>
<path d="M0 0 C0.66 0.33 1.32 0.66 2 1 C0.02 3.97 0.02 3.97 -2 7 C-2.99 6.67 -3.98 6.34 -5 6 C-4.75 4.125 -4.75 4.125 -4 2 C-2.0625 0.6875 -2.0625 0.6875 0 0 Z " fill="#E7921A" transform="translate(288,238)"/>
<path d="M0 0 C0.33 0 0.66 0 1 0 C1.33 2.97 1.66 5.94 2 9 C1.01 9.66 0.02 10.32 -1 11 C-1.125 3.375 -1.125 3.375 0 0 Z " fill="#2F1805" transform="translate(106,185)"/>
<path d="M0 0 C0.33 0.99 0.66 1.98 1 3 C-0.32 4.32 -1.64 5.64 -3 7 C-3.99 6.67 -4.98 6.34 -6 6 C-4.02 4.02 -2.04 2.04 0 0 Z " fill="#3A1E02" transform="translate(177,190)"/>
<path d="M0 0 C1.11375 0.598125 2.2275 1.19625 3.375 1.8125 C4.00148438 2.14894531 4.62796875 2.48539063 5.2734375 2.83203125 C7 4 7 4 9 7 C2.29787234 5.06382979 2.29787234 5.06382979 0 2 C0 1.34 0 0.68 0 0 Z " fill="#E18E1C" transform="translate(344,151)"/>
<path d="M0 0 C0 0.66 0 1.32 0 2 C-1.65 2 -3.3 2 -5 2 C-5 2.66 -5 3.32 -5 4 C-6.65 4 -8.3 4 -10 4 C-6.83527002 0.53386716 -4.79371499 0 0 0 Z " fill="#D4861A" transform="translate(318,147)"/>
<path d="M0 0 C1.21236328 0.02707031 1.21236328 0.02707031 2.44921875 0.0546875 C3.37154297 0.08949219 3.37154297 0.08949219 4.3125 0.125 C1.59310541 1.5826935 -0.93504273 2.54942664 -3.9375 3.25 C-5.175 3.53875 -6.4125 3.8275 -7.6875 4.125 C-7.6875 3.465 -7.6875 2.805 -7.6875 2.125 C-4.48369983 -0.01086678 -3.66810033 -0.10632175 0 0 Z " fill="#351C02" transform="translate(317.6875,144.875)"/>
<path d="M0 0 C4.41889613 1.35021826 6.34345343 3.26115668 9 7 C8.67 7.66 8.34 8.32 8 9 C6.66368764 7.6905332 5.33102075 6.37734515 4 5.0625 C3.2575 4.33160156 2.515 3.60070312 1.75 2.84765625 C0 1 0 1 0 0 Z " fill="#281101" transform="translate(152,346)"/>
<path d="M0 0 C0.33 0 0.66 0 1 0 C1.36923077 5.53846154 1.36923077 5.53846154 -0.5 7.875 C-1.2425 8.431875 -1.2425 8.431875 -2 9 C-2.66 8.67 -3.32 8.34 -4 8 C-2.68 5.36 -1.36 2.72 0 0 Z " fill="#321D03" transform="translate(344,311)"/>
<path d="M0 0 C3.3 0 6.6 0 10 0 C9.67 1.65 9.34 3.3 9 5 C8.34 3.68 7.68 2.36 7 1 C4.69 1 2.38 1 0 1 C0 0.67 0 0.34 0 0 Z " fill="#2E1603" transform="translate(278,174)"/>
<path d="M0 0 C0.66 0.33 1.32 0.66 2 1 C1.175 1.5775 0.35 2.155 -0.5 2.75 C-1.325 3.4925 -2.15 4.235 -3 5 C-3 6.32 -3 7.64 -3 9 C-3.66 9 -4.32 9 -5 9 C-5.3125 6.1875 -5.3125 6.1875 -5 3 C-2.625 1.0625 -2.625 1.0625 0 0 Z " fill="#321501" transform="translate(304,151)"/>
<path d="M0 0 C1.875 0.3125 1.875 0.3125 4 1 C4.66 1.99 5.32 2.98 6 4 C4.02 4.33 2.04 4.66 0 5 C0 3.35 0 1.7 0 0 Z " fill="#231406" transform="translate(209,137)"/>
<path d="M0 0 C0.33 0.66 0.66 1.32 1 2 C0.3125 4.0625 0.3125 4.0625 -1 6 C-3.125 6.75 -3.125 6.75 -5 7 C-3.75023244 3.34683329 -3.32901247 2.21934164 0 0 Z " fill="#EDB256" transform="translate(21,43)"/>
<path d="M0 0 C0.33 0.66 0.66 1.32 1 2 C1.66 2.33 2.32 2.66 3 3 C2.01 3.33 1.02 3.66 0 4 C0 4.99 0 5.98 0 7 C-0.99 7.33 -1.98 7.66 -3 8 C-2.37240135 5.07120629 -1.41377341 2.63904371 0 0 Z " fill="#EF9A29" transform="translate(28,33)"/>
<path d="M0 0 C0.66 0.33 1.32 0.66 2 1 C-0.06756277 3.7972908 -1.14440371 4.02692273 -4.6875 4.6875 C-5.780625 4.790625 -6.87375 4.89375 -8 5 C-6.35197949 1.70395897 -3.32254422 1.22409524 0 0 Z " fill="#ED9115" transform="translate(52,16)"/>
<path d="M0 0 C5.53846154 0.61538462 5.53846154 0.61538462 7.875 2.5625 C8.431875 3.2740625 8.431875 3.2740625 9 4 C8.01 4.495 8.01 4.495 7 5 C4.5249829 3.88568235 2.32116581 2.41849022 0 1 C0 0.67 0 0.34 0 0 Z " fill="#F5C783" transform="translate(51,485)"/>
<path d="M0 0 C1.65 0 3.3 0 5 0 C6.125 3.75 6.125 3.75 5 6 C3.35 4.02 1.7 2.04 0 0 Z " fill="#EFAE53" transform="translate(28,466)"/>
<path d="M0 0 C1.32 1.32 2.64 2.64 4 4 C3.01 4.99 2.02 5.98 1 7 C-1 4 -1 4 -0.625 1.8125 C-0.41875 1.214375 -0.2125 0.61625 0 0 Z " fill="#E98C1A" transform="translate(147,341)"/>
<path d="M0 0 C4.46839215 -0.21278058 7.82262526 0.40861915 12 2 C12 2.33 12 2.66 12 3 C7.45194365 3.17835515 4.1205746 2.99785435 0 1 C0 0.67 0 0.34 0 0 Z " fill="#331902" transform="translate(293,265)"/>
<path d="M0 0 C0.66 0.33 1.32 0.66 2 1 C1.67 1.99 1.34 2.98 1 4 C0.34 4 -0.32 4 -1 4 C-1.33 4.99 -1.66 5.98 -2 7 C-2.99 6.67 -3.98 6.34 -5 6 C-3.35 4.02 -1.7 2.04 0 0 Z " fill="#E18811" transform="translate(215,177)"/>
<path d="M0 0 C2.97 0.495 2.97 0.495 6 1 C6 2.65 6 4.3 6 6 C3.97945196 4.35830472 1.97956942 2.69088222 0 1 C0 0.67 0 0.34 0 0 Z " fill="#3B1B05" transform="translate(352,156)"/>
<path d="M0 0 C1.65 1.32 3.3 2.64 5 4 C4.67 4.99 4.34 5.98 4 7 C2.66666667 6.33333333 1.33333333 5.66666667 0 5 C0 3.35 0 1.7 0 0 Z " fill="#F3AD51" transform="translate(469,31)"/>
<path d="M0 0 C0.66 0 1.32 0 2 0 C1.25 2.4375 1.25 2.4375 0 5 C-2.125 5.8125 -2.125 5.8125 -4 6 C-1.125 1.125 -1.125 1.125 0 0 Z " fill="#E79018" transform="translate(353,340)"/>
<path d="M0 0 C1.43655854 -0.08131463 2.8744483 -0.13933559 4.3125 -0.1875 C5.51326172 -0.23970703 5.51326172 -0.23970703 6.73828125 -0.29296875 C9.47851584 0.06198392 10.29171079 0.89366282 12 3 C10.35 3 8.7 3 7 3 C7 2.34 7 1.68 7 1 C4.69 1 2.38 1 0 1 C0 0.67 0 0.34 0 0 Z " fill="#321200" transform="translate(261,281)"/>
<path d="M0 0 C0.66 0 1.32 0 2 0 C2 0.66 2 1.32 2 2 C3.32 2 4.64 2 6 2 C6 3.32 6 4.64 6 6 C3.37812506 4.95125002 2.20628639 4.35068687 0.75 1.875 C0.5025 1.25625 0.255 0.6375 0 0 Z " fill="#321A02" transform="translate(287,259)"/>
<path d="M0 0 C4.455 1.98 4.455 1.98 9 4 C9 4.66 9 5.32 9 6 C5.59687262 4.94124926 2.98646769 3.99097846 0 2 C0 1.34 0 0.68 0 0 Z " fill="#271601" transform="translate(351,213)"/>
<path d="M0 0 C8.57142857 -0.28571429 8.57142857 -0.28571429 12 2 C10.02 2.33 8.04 2.66 6 3 C6 2.34 6 1.68 6 1 C4.02 1 2.04 1 0 1 C0 0.67 0 0.34 0 0 Z " fill="#E6911F" transform="translate(261,172)"/>
<path d="M0 0 C0.98120464 3.05263664 0.98120464 4.94736336 0 8 C-0.99 8 -1.98 8 -3 8 C-1.125 1.125 -1.125 1.125 0 0 Z " fill="#F0BF6F" transform="translate(12,55)"/>
</svg>
